<svg viewBox="0 0 103 39" version="1.1" xmlns="http://www.w3.org/2000/svg" xmlns:xlink="http://www.w3.org/1999/xlink">
  <g id="Brand-Outline" stroke="none" stroke-width="1" fill="none" fill-rule="evenodd">
  <path d="M5.92704024,17 C6.69312027,17 7.36176029,16.8992 7.93296032,16.6976 C8.50416034,16.496 8.98128036,16.19696 9.36432037,15.80048 C9.74736039,15.4039999 10.0363204,14.9067199 10.2312004,14.3086399 C10.4260804,13.7105599 10.5235204,13.0217598 10.5235204,12.2422398 C10.5235204,11.4627198 10.4193604,10.7974398 10.2110404,10.2463997 C10.0027204,9.69535971 9.68688038,9.24847969 9.26352037,8.90575968 C8.84016035,8.56303966 8.30592033,8.33791966 7.6608003,8.23039965 C8.18496033,8.13631965 8.62176034,7.95151964 8.97120036,7.67599963 C9.32064037,7.40047962 9.58608038,7.0275196 9.76752039,6.55711959 C9.9489604,6.08671957 10.0396804,5.52223954 10.0396804,4.86367952 C10.0396804,4.04383949 9.92544039,3.36511946 9.69696039,2.82751944 C9.46848038,2.28991942 9.14256036,1.8631994 8.71920035,1.54735939 C8.29584033,1.23151937 7.79184031,1.00639936 7.20720029,0.871999359 C6.62256026,0.737599354 5.96736024,0.670399351 5.24160021,0.670399351 L5.24160021,0.670399351 L1.22976005,0.670399351 L1.22976005,17 L5.92704024,17 Z M5.22144021,7.34335962 L4.21344017,7.34335962 L4.21344017,2.74687943 L4.79808019,2.74687943 C5.40288021,2.74687943 5.90016023,2.80399944 6.28992025,2.91823944 C6.67968027,3.03247944 6.97200028,3.24751945 7.16688028,3.56335947 C7.36176029,3.87919948 7.4592003,4.3260795 7.4592003,4.90399952 C7.4592003,5.45503954 7.39536029,5.91199956 7.26768029,6.27487957 C7.14000028,6.63775959 6.91488027,6.9065596 6.59232026,7.08127961 C6.26976025,7.25599961 5.81280023,7.34335962 5.22144021,7.34335962 L5.22144021,7.34335962 Z M5.34240021,14.9033599 L4.21344017,14.9033599 L4.21344017,9.3996797 L5.24160021,9.3996797 C5.83296023,9.3996797 6.30672025,9.5004797 6.66288026,9.70207971 C7.01904028,9.90367972 7.27440029,10.2094397 7.4289603,10.6193597 C7.5835203,11.0292798 7.6608003,11.5635198 7.6608003,12.2220798 C7.6608003,13.1359998 7.4995203,13.8113599 7.17696029,14.2481599 C6.85440027,14.6849599 6.24288025,14.9033599 5.34240021,14.9033599 L5.34240021,14.9033599 Z M14.4345606,17 L15.0998406,13.2300799 L17.9424007,13.2300799 L18.5875207,17 L21.3494408,17 L18.0835207,0.670399351 L14.8982406,0.670399351 L11.6323205,17 L14.4345606,17 Z M17.6198407,11.3350398 L15.4022406,11.3350398 L16.5110407,4.4806395 L17.6198407,11.3350398 Z M27.3772811,17.22176 C28.5331211,17.22176 29.4302412,17.01008 30.0686412,16.58672 C30.7070412,16.16336 31.1539212,15.5787199 31.4092812,14.8327999 C31.6646413,14.0868799 31.7923213,13.2300799 31.7923213,12.2623998 L31.7923213,12.2623998 L31.7923213,10.9519998 L28.9296011,10.9519998 L28.9296011,12.4236798 C28.9296011,12.9075198 28.9027211,13.3443199 28.8489611,13.7340799 C28.7952011,14.1238399 28.6641611,14.4363199 28.4558411,14.6715199 C28.2475211,14.9067199 27.8947211,15.0243199 27.3974411,15.0243199 C26.9673611,15.0243199 26.6280011,14.9268799 26.379361,14.7319999 C26.130721,14.5371199 25.959361,14.2481599 25.865281,13.8651199 C25.771201,13.4820799 25.724161,12.9948798 25.724161,12.4035198 L25.724161,12.4035198 L25.724161,5.30719954 C25.724161,4.80991952 25.757761,4.3630395 25.824961,3.96655948 C25.892161,3.57007947 26.043361,3.25423945 26.278561,3.01903944 C26.5137611,2.78383944 26.8867211,2.66623943 27.3974411,2.66623943 C27.9081611,2.66623943 28.2676811,2.77711943 28.4760011,2.99887944 C28.6843211,3.22063945 28.8120011,3.51967946 28.8590411,3.89599948 C28.9060811,4.27231949 28.9296011,4.68895951 28.9296011,5.14591953 L28.9296011,5.14591953 L28.9296011,6.55711959 L31.7923213,6.55711959 L31.7923213,5.18623953 C31.7923213,4.24543949 31.6579213,3.41887946 31.3891212,2.70655943 C31.1203212,1.9942394 30.6667212,1.44655938 30.0283212,1.06351937 C29.3899212,0.680479352 28.5062411,0.488959344 27.3772811,0.488959344 C26.181121,0.488959344 25.243681,0.710719353 24.564961,1.15423937 C23.8862409,1.59775939 23.4124809,2.22943941 23.1436809,3.04927945 C22.8748809,3.86911948 22.7404809,4.83679952 22.7404809,5.95231956 L22.7404809,5.95231956 L22.7404809,11.7785598 C22.7404809,12.8403198 22.8748809,13.7777599 23.1436809,14.5908799 C23.4124809,15.4039999 23.8862409,16.04576 24.564961,16.51616 C25.243681,16.98656 26.181121,17.22176 27.3772811,17.22176 Z M36.8524815,17 L36.8524815,10.8108798 L37.5379215,9.5609597 L40.2796816,17 L43.2432017,17 L39.7958416,7.96831964 L42.9206417,0.670399351 L40.0780816,0.670399351 L36.8524815,7.84735964 L36.8524815,0.670399351 L33.8688013,0.670399351 L33.8688013,17 L36.8524815,17 Z M49.210562,17 L49.210562,2.86783944 L51.7708821,2.86783944 L51.7708821,0.670399351 L43.6262417,0.670399351 L43.6262417,2.86783944 L46.2268818,2.86783944 L46.2268818,17 L49.210562,17 Z M56.2464022,17 L56.2464022,9.5206397 L57.6172823,9.5206397 L59.5929624,17 L62.5766425,17 L60.2985624,8.95615968 C60.8092824,8.75455967 61.2091224,8.46895966 61.4980824,8.09935965 C61.7870425,7.72975963 61.9920025,7.28287961 62.1129625,6.75871959 C62.2339225,6.23455957 62.2944025,5.64319955 62.2944025,4.98463952 C62.2944025,3.89599948 62.0961625,3.03583945 61.6996825,2.40415942 C61.3032024,1.77247939 60.7252824,1.32559938 59.9659224,1.06351937 C59.2065624,0.801439356 58.2758423,0.670399351 57.1737623,0.670399351 L57.1737623,0.670399351 L53.2627221,0.670399351 L53.2627221,17 L56.2464022,17 Z M57.1737623,7.64575963 L56.2464022,7.64575963 L56.2464022,2.70655943 L57.3350423,2.70655943 C58.1817623,2.70655943 58.7563223,2.91151944 59.0587223,3.32143946 C59.3611224,3.73135947 59.5123224,4.3462395 59.5123224,5.16607953 C59.5123224,5.74399955 59.4384024,6.21775957 59.2905624,6.58735959 C59.1427224,6.9569596 58.8974423,7.22575961 58.5547223,7.39375962 C58.2120023,7.56175962 57.7516823,7.64575963 57.1737623,7.64575963 L57.1737623,7.64575963 Z M66.5481626,17 L67.2134427,13.2300799 L70.0560028,13.2300799 L70.7011228,17 L73.4630429,17 L70.1971228,0.670399351 L67.0118427,0.670399351 L63.7459225,17 L66.5481626,17 Z M69.7334428,11.3350398 L67.5158427,11.3350398 L68.6246427,4.4806395 L69.7334428,11.3350398 Z M79.4908832,17.22176 C80.6467232,17.22176 81.5438432,17.01008 82.1822433,16.58672 C82.8206433,16.16336 83.2675233,15.5787199 83.5228833,14.8327999 C83.7782433,14.0868799 83.9059233,13.2300799 83.9059233,12.2623998 L83.9059233,12.2623998 L83.9059233,10.9519998 L81.0432032,10.9519998 L81.0432032,12.4236798 C81.0432032,12.9075198 81.0163232,13.3443199 80.9625632,13.7340799 C80.9088032,14.1238399 80.7777632,14.4363199 80.5694432,14.6715199 C80.3611232,14.9067199 80.0083232,15.0243199 79.5110432,15.0243199 C79.0809631,15.0243199 78.7416031,14.9268799 78.4929631,14.7319999 C78.2443231,14.5371199 78.0729631,14.2481599 77.9788831,13.8651199 C77.8848031,13.4820799 77.8377631,12.9948798 77.8377631,12.4035198 L77.8377631,12.4035198 L77.8377631,5.30719954 C77.8377631,4.80991952 77.8713631,4.3630395 77.9385631,3.96655948 C78.0057631,3.57007947 78.1569631,3.25423945 78.3921631,3.01903944 C78.6273631,2.78383944 79.0003231,2.66623943 79.5110432,2.66623943 C80.0217632,2.66623943 80.3812832,2.77711943 80.5896032,2.99887944 C80.7979232,3.22063945 80.9256032,3.51967946 80.9726432,3.89599948 C81.0196832,4.27231949 81.0432032,4.68895951 81.0432032,5.14591953 L81.0432032,5.14591953 L81.0432032,6.55711959 L83.9059233,6.55711959 L83.9059233,5.18623953 C83.9059233,4.24543949 83.7715233,3.41887946 83.5027233,2.70655943 C83.2339233,1.9942394 82.7803233,1.44655938 82.1419233,1.06351937 C81.5035232,0.680479352 80.6198432,0.488959344 79.4908832,0.488959344 C78.2947231,0.488959344 77.3572831,0.710719353 76.678563,1.15423937 C75.999843,1.59775939 75.526083,2.22943941 75.257283,3.04927945 C74.988483,3.86911948 74.854083,4.83679952 74.854083,5.95231956 L74.854083,5.95231956 L74.854083,11.7785598 C74.854083,12.8403198 74.988483,13.7777599 75.257283,14.5908799 C75.526083,15.4039999 75.999843,16.04576 76.678563,16.51616 C77.3572831,16.98656 78.2947231,17.22176 79.4908832,17.22176 Z M88.9660835,17 L88.9660835,10.8108798 L89.6515236,9.5609597 L92.3932837,17 L95.3568038,17 L91.9094437,7.96831964 L95.0342438,0.670399351 L92.1916837,0.670399351 L88.9660835,7.84735964 L88.9660835,0.670399351 L85.9824034,0.670399351 L85.9824034,17 L88.9660835,17 Z M3.20544013,38 L3.87072015,34.2300799 L6.71328027,34.2300799 L7.35840029,38 L10.1203204,38 L6.85440027,21.6703994 L3.66912015,21.6703994 L0.403200016,38 L3.20544013,38 Z M6.39072025,32.3350398 L4.17312017,32.3350398 L5.28192021,25.4806395 L6.39072025,32.3350398 Z M16.1481606,38.22176 C17.3040007,38.22176 18.2011207,38.01008 18.8395207,37.58672 C19.4779208,37.16336 19.9248008,36.5787199 20.1801608,35.8327999 C20.4355208,35.0868799 20.5632008,34.2300799 20.5632008,33.2623998 L20.5632008,33.2623998 L20.5632008,31.9519998 L17.7004807,31.9519998 L17.7004807,33.4236798 C17.7004807,33.9075198 17.6736007,34.3443199 17.6198407,34.7340799 C17.5660807,35.1238399 17.4350407,35.4363199 17.2267207,35.6715199 C17.0184007,35.9067199 16.6656007,36.0243199 16.1683206,36.0243199 C15.7382406,36.0243199 15.3988806,35.9268799 15.1502406,35.7319999 C14.9016006,35.5371199 14.7302406,35.2481599 14.6361606,34.8651199 C14.5420806,34.4820799 14.4950406,33.9948798 14.4950406,33.4035198 L14.4950406,33.4035198 L14.4950406,26.3071995 C14.4950406,25.8099195 14.5286406,25.3630395 14.5958406,24.9665595 C14.6630406,24.5700795 14.8142406,24.2542395 15.0494406,24.0190394 C15.2846406,23.7838394 15.6576006,23.6662394 16.1683206,23.6662394 C16.6790407,23.6662394 17.0385607,23.7771194 17.2468807,23.9988794 C17.4552007,24.2206395 17.5828807,24.5196795 17.6299207,24.8959995 C17.6769607,25.2723195 17.7004807,25.6889595 17.7004807,26.1459195 L17.7004807,26.1459195 L17.7004807,27.5571196 L20.5632008,27.5571196 L20.5632008,26.1862395 C20.5632008,25.2454395 20.4288008,24.4188795 20.1600008,23.7065594 C19.8912008,22.9942394 19.4376008,22.4465594 18.7992007,22.0635194 C18.1608007,21.6804794 17.2771207,21.4889593 16.1481606,21.4889593 C14.9520006,21.4889593 14.0145606,21.7107194 13.3358405,22.1542394 C12.6571205,22.5977594 12.1833605,23.2294394 11.9145605,24.0492794 C11.6457605,24.8691195 11.5113605,25.8367995 11.5113605,26.9523196 L11.5113605,26.9523196 L11.5113605,32.7785598 C11.5113605,33.8403198 11.6457605,34.7777599 11.9145605,35.5908799 C12.1833605,36.4039999 12.6571205,37.04576 13.3358405,37.51616 C14.0145606,37.98656 14.9520006,38.22176 16.1481606,38.22176 Z M24.615361,38 L25.280641,34.2300799 L28.1232011,34.2300799 L28.7683211,38 L31.5302413,38 L28.2643211,21.6703994 L25.079041,21.6703994 L21.8131209,38 L24.615361,38 Z M27.8006411,32.3350398 L25.583041,32.3350398 L26.6918411,25.4806395 L27.8006411,32.3350398 Z M37.1347215,38 C38.4115215,38 39.4161616,37.80848 40.1486416,37.42544 C40.8811216,37.0424 41.4052816,36.4577599 41.7211217,35.6715199 C42.0369617,34.8852799 42.1948817,33.9007998 42.1948817,32.7180798 L42.1948817,32.7180798 L42.1948817,26.7507196 C42.1948817,25.5948795 42.0369617,24.6406395 41.7211217,23.8879994 C41.4052816,23.1353594 40.8744016,22.5775994 40.1284816,22.2147194 C39.3825616,21.8518394 38.3443215,21.6703994 37.0137615,21.6703994 L37.0137615,21.6703994 L33.1632013,21.6703994 L33.1632013,38 L37.1347215,38 Z M37.0540815,35.9235199 L36.1468814,35.9235199 L36.1468814,23.7871994 L37.0137615,23.7871994 C37.6723215,23.7871994 38.1494415,23.8812794 38.4451215,24.0694394 C38.7408015,24.2575995 38.9356815,24.5532795 39.0297616,24.9564795 C39.1238416,25.3596795 39.1708816,25.8905595 39.1708816,26.5491195 L39.1708816,26.5491195 L39.1708816,32.7987198 C39.1708816,33.4707198 39.1372816,34.0385598 39.0700816,34.5022399 C39.0028815,34.9659199 38.8214415,35.3187199 38.5257615,35.5606399 C38.2300815,35.8025599 37.7395215,35.9235199 37.0540815,35.9235199 L37.0540815,35.9235199 Z M51.287042,38 L51.287042,35.9436799 L47.3760019,35.9436799 L47.3760019,30.5407997 L50.420162,30.5407997 L50.420162,28.4643196 L47.3760019,28.4643196 L47.3760019,23.7670394 L51.246722,23.7670394 L51.246722,21.6703994 L44.3923218,21.6703994 L44.3923218,38 L51.287042,38 Z M55.2182422,38 L55.4400022,26.6095995 L57.7987223,38 L59.5929624,38 L61.9113625,26.6499195 L62.1532825,38 L64.3708826,38 L64.0684825,21.6703994 L61.0848024,21.6703994 L58.6656023,32.9801598 L56.3472022,21.6703994 L53.2627221,21.6703994 L52.9804821,38 L55.2182422,38 Z M71.9107229,38 L71.9107229,31.7705598 L75.176643,21.6703994 L72.4550429,21.6703994 L70.5600028,28.1417596 L68.5440027,21.6703994 L65.7619226,21.6703994 L69.0681627,31.7705598 L69.0681627,38 L71.9107229,38 Z" id="BACKTRACKACADEMY" fill="#FFFFFF" fill-rule="nonzero"></path>
  <rect id="Rectangle" class="icono" fill="#ff1343" x="80.0056458" y="36.0039368" width="15.0024109" height="1.99139404"></rect>
  </g>
</svg>