<?xml version="1.0" encoding="utf-8"?>
<!-- Generator: Adobe Illustrator 25.1.0, SVG Export Plug-In . SVG Version: 6.00 Build 0)  -->
<svg version="1.1" id="Capa_1" xmlns="http://www.w3.org/2000/svg" xmlns:xlink="http://www.w3.org/1999/xlink" x="0px" y="0px"
	 viewBox="0 0 170 170" style="enable-background:new 0 0 170 170;" xml:space="preserve">
<style type="text/css">
	.st0{fill:#FFFFFF;}
</style>
<g>
	<g>
		<g>
			<g>
				<path class="st0" d="M150.6,60h-27.1c0-3.2,1.3-6,3.4-8.1v-5.2c0-4.6,3.1-8.5,7.3-9.8v-1.1c0-1.6,1.3-2.9,2.9-2.9
					c0.8,0,1.5,0.3,2,0.8s0.8,1.2,0.8,2V37c1.7,0.5,3.1,1.4,4.3,2.6c1.8,1.8,3,4.4,3,7.2V52l0,0C149.3,54,150.6,56.9,150.6,60z"/>
			</g>
		</g>
		<g>
			<g>
				<path class="st0" d="M141.2,62.5c0,2.3-1.8,4.1-4.1,4.1s-4.1-1.8-4.1-4.1H141.2z"/>
			</g>
		</g>
		<g>
			<g>
				<rect x="28.4" y="34.8" class="st0" width="30.2" height="2.3"/>
				<rect x="26.9" y="33.3" class="st0" width="33.2" height="5.3"/>
			</g>
		</g>
		<g>
			<g>
				<rect x="112.8" y="126.4" class="st0" width="30.2" height="2.3"/>
				<rect x="111.3" y="124.9" class="st0" width="33.2" height="5.3"/>
			</g>
		</g>
		<g>
			<g>
				<rect x="92.2" y="133.5" class="st0" width="30.2" height="2.3"/>
				<rect x="90.7" y="132" class="st0" width="33.2" height="5.3"/>
			</g>
		</g>
		<g>
			<g>
				<rect x="19.4" y="42.8" class="st0" width="48.2" height="2.3"/>
				<rect x="17.9" y="41.3" class="st0" width="51.2" height="5.3"/>
			</g>
		</g>
		<g>
			<g>
				<polygon class="st0" points="137.2,120.6 35.5,120.6 35.5,53.7 119.6,53.7 119.6,56 37.8,56 37.8,118.4 135,118.4 135,70.6 
					137.2,70.6 				"/>
				<polygon class="st0" points="138.7,122.1 34,122.1 34,52.2 121.1,52.2 121.1,57.5 39.3,57.5 39.3,116.9 133.5,116.9 133.5,69.1 
					138.7,69.1 				"/>
			</g>
		</g>
		<g>
			<g>
				<polygon class="st0" points="85,79.4 36.2,55.9 37.1,53.8 85,77 120.2,60.9 121.1,62.9 				"/>
				<polygon class="st0" points="84.9,81.1 34.2,56.5 36.4,51.8 85,75.3 120.9,58.9 123.1,63.6 				"/>
			</g>
		</g>
		<g>
			<g>
				<g>
					<path class="st0" d="M74.6,105.1c-0.6-0.7-1-1.7-1-3v-8.8c0-1.3,0.3-2.3,1-3c0.6-0.7,1.6-1.1,2.8-1.1c1.2,0,2.2,0.4,2.8,1.1
						c0.6,0.7,1,1.7,1,3V95h-2.4v-1.9c0-1-0.4-1.5-1.3-1.5s-1.3,0.5-1.3,1.5v9.2c0,1,0.4,1.5,1.3,1.5s1.3-0.5,1.3-1.5v-2.5h2.4v2.3
						c0,1.3-0.3,2.3-1,3c-0.6,0.7-1.6,1.1-2.8,1.1C76.2,106.2,75.2,105.8,74.6,105.1z"/>
				</g>
			</g>
			<g>
				<g>
					<path class="st0" d="M82.1,89.5h2.6l1.7,12.7l0,0l1.7-12.7h2.4L88,105.9h-3.4L82.1,89.5z"/>
				</g>
			</g>
			<g>
				<g>
					<path class="st0" d="M91.7,89.5h7v2.3h-4.4v4.3h3.5v2.3h-3.5v5h4.4v2.3h-7V89.5z"/>
				</g>
			</g>
		</g>
	</g>
</g>
</svg>
