<?xml version="1.0" encoding="utf-8"?>
<!-- Generator: Adobe Illustrator 25.1.0, SVG Export Plug-In . SVG Version: 6.00 Build 0)  -->
<svg version="1.1" id="Capa_1" xmlns="http://www.w3.org/2000/svg" xmlns:xlink="http://www.w3.org/1999/xlink" x="0px" y="0px"
	 viewBox="0 0 170 170" style="enable-background:new 0 0 170 170;" xml:space="preserve">
<style type="text/css">
	.st0{fill:#FFFFFF;}
</style>
<g>
	<g>
		<g>
			<g>
				<g>
					<path class="st0" d="M130.6,39.2h-2.9v-1.3h4.3v1.2l-2.2,7.8h-1.5L130.6,39.2z"/>
				</g>
			</g>
			<g>
				<g>
					<path class="st0" d="M133,45.6h1.4V47H133V45.6z"/>
				</g>
			</g>
			<g>
				<g>
					<path class="st0" d="M135.9,46.5c-0.4-0.4-0.5-1-0.5-1.7v-0.7h1.4V45c0,0.6,0.2,0.9,0.7,0.9s0.7-0.3,0.7-0.9v-2
						c0-0.6-0.2-0.9-0.7-0.9s-0.7,0.3-0.7,0.9l0,0h-1.4l0.3-5.1h3.8v1.3H137l-0.1,2.2l0,0c0.3-0.4,0.7-0.7,1.2-0.7s0.9,0.2,1.2,0.5
						c0.3,0.4,0.4,0.9,0.4,1.5v2.1c0,0.7-0.2,1.3-0.5,1.7c-0.4,0.4-0.9,0.6-1.6,0.6C136.8,47.1,136.3,46.9,135.9,46.5z"/>
				</g>
			</g>
		</g>
		<g>
			<g>
				<g>
					<path class="st0" d="M127.7,61.2c0-0.6,0.1-1.2,0.3-1.7c0.2-0.5,0.6-1,1.1-1.5c0.5-0.6,0.9-1,1.1-1.4c0.2-0.4,0.3-0.8,0.3-1.2
						s-0.1-0.7-0.2-0.8c-0.1-0.2-0.3-0.2-0.6-0.2c-0.5,0-0.7,0.3-0.7,0.9v1h-1.4v-0.9c0-0.7,0.2-1.3,0.5-1.7
						c0.4-0.4,0.9-0.6,1.6-0.6c0.7,0,1.2,0.2,1.6,0.6c0.4,0.4,0.5,1,0.5,1.7c0,0.6-0.1,1.1-0.4,1.6c-0.3,0.5-0.7,1.1-1.4,1.8
						c-0.4,0.5-0.7,0.8-0.9,1.1c-0.1,0.3-0.2,0.6-0.2,0.9V61h2.7v1.3h-4.1v-1.1H127.7z"/>
				</g>
			</g>
			<g>
				<g>
					<path class="st0" d="M133,60.9h1.4v1.4H133V60.9z"/>
				</g>
			</g>
			<g>
				<g>
					<path class="st0" d="M135.9,61.8c-0.4-0.4-0.5-1-0.5-1.7v-0.7h1.4v0.8c0,0.6,0.2,0.9,0.7,0.9s0.7-0.3,0.7-0.9v-2
						c0-0.6-0.2-0.9-0.7-0.9s-0.7,0.3-0.7,0.9v0.1h-1.4l0.3-5.1h3.8v1.3H137l-0.1,2.2l0,0c0.3-0.4,0.7-0.7,1.2-0.7s0.9,0.2,1.2,0.5
						c0.3,0.4,0.4,0.9,0.4,1.5v2.1c0,0.7-0.2,1.3-0.5,1.7c-0.4,0.4-0.9,0.6-1.6,0.6C136.8,62.4,136.3,62.2,135.9,61.8z"/>
				</g>
			</g>
		</g>
		<g>
			<g>
				<g>
					<path class="st0" d="M128.3,77c-0.4-0.4-0.5-1-0.5-1.7v-0.7h1.4v0.8c0,0.6,0.2,0.9,0.7,0.9s0.7-0.3,0.7-0.9v-2
						c0-0.6-0.2-0.9-0.7-0.9s-0.7,0.3-0.7,0.9v0.1h-1.4l0.3-5.1h3.8v1.3h-2.5l-0.1,2.2l0,0c0.3-0.4,0.7-0.7,1.2-0.7s0.9,0.2,1.2,0.5
						c0.3,0.4,0.4,0.9,0.4,1.5v2.1c0,0.7-0.2,1.3-0.5,1.7c-0.4,0.4-0.9,0.6-1.6,0.6C129.2,77.6,128.6,77.4,128.3,77z"/>
				</g>
			</g>
			<g>
				<g>
					<path class="st0" d="M133,76.1h1.4v1.4H133V76.1z"/>
				</g>
			</g>
			<g>
				<g>
					<path class="st0" d="M135.9,77c-0.4-0.4-0.5-1-0.5-1.7v-0.7h1.4v0.8c0,0.6,0.2,0.9,0.7,0.9s0.7-0.3,0.7-0.9v-2
						c0-0.6-0.2-0.9-0.7-0.9s-0.7,0.3-0.7,0.9v0.1h-1.4l0.3-5.1h3.8v1.3H137l-0.1,2.2l0,0c0.3-0.4,0.7-0.7,1.2-0.7s0.9,0.2,1.2,0.5
						c0.3,0.4,0.4,0.9,0.4,1.5v2.1c0,0.7-0.2,1.3-0.5,1.7c-0.4,0.4-0.9,0.6-1.6,0.6C136.8,77.6,136.3,77.4,135.9,77z"/>
				</g>
			</g>
		</g>
		<g>
			<g>
				<g>
					
						<rect x="113.6" y="37.8" transform="matrix(0.7071 -0.7071 0.7071 0.7071 3.3755 93.2198)" class="st0" width="1.3" height="9.4"/>
				</g>
				<g>
					<path class="st0" d="M117.2,47.1l-7.4-7.4l1.6-1.6l7.4,7.4L117.2,47.1z M111.2,39.7l6,6l0.2-0.2l-6-6L111.2,39.7z"/>
				</g>
			</g>
		</g>
		<g>
			<g>
				<g>
					
						<rect x="109.6" y="41.9" transform="matrix(0.7071 -0.7071 0.7071 0.7071 3.3962 93.2698)" class="st0" width="9.4" height="1.3"/>
				</g>
				<g>
					<path class="st0" d="M111.4,47.1l-1.6-1.6l7.4-7.4l1.6,1.6L111.4,47.1z M111.2,45.4l0.2,0.2l6-6l-0.2-0.2L111.2,45.4z"/>
				</g>
			</g>
		</g>
		<g>
			<g>
				<g>
					
						<rect x="113.6" y="68.2" transform="matrix(0.7071 -0.7071 0.7071 0.7071 -18.0854 102.1586)" class="st0" width="1.3" height="9.4"/>
				</g>
				<g>
					<path class="st0" d="M117.2,77.4l-7.4-7.4l1.6-1.6l7.4,7.4L117.2,77.4z M111.2,70l6,6l0.2-0.2l-6-6L111.2,70z"/>
				</g>
			</g>
		</g>
		<g>
			<g>
				<g>
					
						<rect x="109.6" y="72.2" transform="matrix(0.7071 -0.7071 0.7071 0.7071 -18.0354 102.1379)" class="st0" width="9.4" height="1.3"/>
				</g>
				<g>
					<path class="st0" d="M111.4,77.4l-1.6-1.6l7.4-7.4l1.6,1.6L111.4,77.4z M111.2,75.8l0.2,0.2l6-6l-0.2-0.2L111.2,75.8z"/>
				</g>
			</g>
		</g>
		<g>
			<g>
				<g>
					<polygon class="st0" points="114.5,62.2 110.3,59 111.1,57.9 114.1,60.3 117.6,53.9 118.8,54.5 					"/>
				</g>
				<g>
					<path class="st0" d="M114.7,63l-5-3.9l1.4-1.8l2.9,2.3l3.5-6.3l2,1.1L114.7,63z M111,58.9l3.3,2.6l3.7-6.8l-0.3-0.1l-3.5,6.5
						l-3-2.4L111,58.9z"/>
				</g>
			</g>
		</g>
		<g>
			<g>
				<g>
					<path class="st0" d="M143.4,83.3h-40.6V33.9h40.6V83.3z M104.2,82h37.9V35.2h-37.9C104.2,35.2,104.2,82,104.2,82z"/>
				</g>
				<g>
					<path class="st0" d="M143.9,83.8h-41.6V33.4h41.6V83.8z M103.4,82.8H143V34.4h-39.6V82.8z M142.6,82.5h-38.9V34.7h38.9V82.5z
						 M104.7,81.5h36.9V35.7h-36.9C104.7,35.7,104.7,81.5,104.7,81.5z"/>
				</g>
			</g>
		</g>
		<g>
			<g>
				<g>
					<path class="st0" d="M65.5,135.9l-33.2-19.2V78.5l33.2-19.2l33.2,19.2v38.3L65.5,135.9z M34.2,115.7l31.3,18.1l31.3-18.1V79.5
						l-31.3-18l-31.3,18V115.7z"/>
				</g>
				<g>
					<path class="st0" d="M65.5,136.9c-0.2,0-0.3,0-0.5-0.1l-33.2-19.2c-0.3-0.2-0.5-0.5-0.5-0.9V78.5c0-0.4,0.2-0.7,0.5-0.9
						L65,58.4c0.3-0.2,0.7-0.2,1,0l33.2,19.2c0.3,0.2,0.5,0.5,0.5,0.9v38.3c0,0.4-0.2,0.7-0.5,0.9L66,136.8
						C65.9,136.9,65.7,136.9,65.5,136.9z M65.5,134.7L65.5,134.7L65.5,134.7C65.5,134.7,65.5,134.7,65.5,134.7z M35.2,115.1
						l30.3,17.5l30.3-17.5v-35L65.5,62.6L35.2,80.1V115.1z M97.7,116.1C97.7,116.1,97.7,116.2,97.7,116.1L97.7,116.1L97.7,116.1z
						 M33.3,116.2L33.3,116.2C33.4,116.2,33.4,116.1,33.3,116.2L33.3,116.2z M97.6,79C97.6,79,97.6,79.1,97.6,79L97.6,79L97.6,79z
						 M33.3,79L33.3,79C33.4,79.1,33.4,79,33.3,79L33.3,79z M65.5,60.5L65.5,60.5L65.5,60.5L65.5,60.5z"/>
				</g>
			</g>
		</g>
		<g>
			<g>
				<g>
					<rect x="64.6" y="97.6" class="st0" width="1.9" height="37.2"/>
				</g>
				<g>
					<path class="st0" d="M66.5,135.8h-1.9c-0.6,0-1-0.4-1-1V97.6c0-0.6,0.4-1,1-1h1.9c0.6,0,1,0.4,1,1v37.2
						C67.5,135.4,67,135.8,66.5,135.8z"/>
				</g>
			</g>
		</g>
		<g>
			<g>
				<g>
					<polygon class="st0" points="65.5,98.7 32.8,79.8 33.8,78.2 65.5,96.5 97.3,78.2 98.2,79.8 					"/>
				</g>
				<g>
					<path class="st0" d="M65.5,99.7c-0.2,0-0.3,0-0.5-0.1L32.3,80.7c-0.5-0.3-0.6-0.9-0.4-1.4l0.9-1.6c0.1-0.2,0.4-0.4,0.6-0.5
						c0.3-0.1,0.5,0,0.8,0.1l31.3,18l31.3-18c0.5-0.3,1.1-0.1,1.4,0.4l0.9,1.6c0.1,0.2,0.2,0.5,0.1,0.8s-0.2,0.5-0.5,0.6L66,99.6
						C65.9,99.7,65.7,99.7,65.5,99.7z M65.5,97.5L65.5,97.5L65.5,97.5C65.5,97.5,65.5,97.5,65.5,97.5z"/>
				</g>
			</g>
		</g>
		<g>
			<g>
				<path class="st0" d="M115.3,101.2H98.2v-5h17.1c2.9,0,5.3-2.4,5.3-5.3v-7.5h5v7.5C125.6,96.6,121,101.2,115.3,101.2z"/>
			</g>
		</g>
	</g>
</g>
</svg>
