<?xml version="1.0" encoding="utf-8"?>
<!-- Generator: Adobe Illustrator 25.1.0, SVG Export Plug-In . SVG Version: 6.00 Build 0)  -->
<svg version="1.1" id="Capa_1" xmlns="http://www.w3.org/2000/svg" xmlns:xlink="http://www.w3.org/1999/xlink" x="0px" y="0px"
	 viewBox="0 0 170 170" style="enable-background:new 0 0 170 170;" xml:space="preserve">
<style type="text/css">
	.st0{fill:#FFFFFF;}
</style>
<g>
	<g>
		<g>
			<g>
				<circle class="st0" cx="71.4" cy="48.8" r="3.2"/>
			</g>
		</g>
		<g>
			<g>
				<circle class="st0" cx="85.1" cy="64.7" r="3.2"/>
			</g>
		</g>
		<g>
			<g>
				<circle class="st0" cx="104.6" cy="57" r="3.2"/>
			</g>
		</g>
		<g>
			<g>
				<circle class="st0" cx="104.6" cy="37" r="3.2"/>
			</g>
		</g>
		<g>
			<g>
				<circle class="st0" cx="122.8" cy="23.4" r="3.2"/>
			</g>
		</g>
		<g>
			<g>
				<rect x="84.5" y="70.3" class="st0" width="1.1" height="6.5"/>
				<rect x="83.5" y="69.3" class="st0" width="3.1" height="8.5"/>
			</g>
		</g>
		<g>
			<g>
				
					<rect x="89.2" y="59.9" transform="matrix(0.9322 -0.362 0.362 0.9322 -15.4638 38.3409)" class="st0" width="10.8" height="1.1"/>
				
					<rect x="88.2" y="58.9" transform="matrix(0.9322 -0.3618 0.3618 0.9322 -15.4589 38.3174)" class="st0" width="12.8" height="3.1"/>
			</g>
		</g>
		<g>
			<g>
				<rect x="104" y="42.4" class="st0" width="1.1" height="9.6"/>
				<rect x="103" y="41.4" class="st0" width="3.1" height="11.6"/>
			</g>
		</g>
		<g>
			<g>
				<rect x="70.8" y="33.8" class="st0" width="1.1" height="9.6"/>
				<rect x="69.8" y="32.8" class="st0" width="3.1" height="11.6"/>
			</g>
		</g>
		<g>
			<g>
				
					<rect x="108" y="29.6" transform="matrix(0.8165 -0.5773 0.5773 0.8165 3.3837 70.9907)" class="st0" width="10.8" height="1.1"/>
				
					<rect x="107" y="28.6" transform="matrix(0.8165 -0.5774 0.5774 0.8165 3.3894 71.0031)" class="st0" width="12.8" height="3.1"/>
			</g>
		</g>
		<g>
			<g>
				
					<rect x="57.3" y="55.1" transform="matrix(0.8165 -0.5773 0.5773 0.8165 -20.6372 46.4184)" class="st0" width="10.8" height="1.1"/>
				
					<rect x="56.3" y="54.1" transform="matrix(0.8165 -0.5774 0.5774 0.8165 -20.6375 46.4281)" class="st0" width="12.8" height="3.1"/>
			</g>
		</g>
		<g>
			<g>
				
					<rect x="77.8" y="51.7" transform="matrix(0.7764 -0.6302 0.6302 0.7764 -18.3843 62.1531)" class="st0" width="1.2" height="10.6"/>
				
					<rect x="76.8" y="50.7" transform="matrix(0.7764 -0.6302 0.6302 0.7764 -18.3846 62.1532)" class="st0" width="3.2" height="12.6"/>
			</g>
		</g>
	</g>
	<g>
		<g>
			<g>
				<path class="st0" d="M85,156.7l-33.2-19.2V99.2L85,80.1l33.2,19.2v38.3L85,156.7z M53.7,136.5l31.3,18l31.3-18.1v-36.1L85,82.3
					l-31.3,18.1V136.5z"/>
			</g>
			<g>
				<path class="st0" d="M85,157.7c-0.2,0-0.3,0-0.5-0.1l-33.2-19.2c-0.3-0.2-0.5-0.5-0.5-0.9V99.2c0-0.4,0.2-0.7,0.5-0.9l33.2-19.2
					c0.3-0.2,0.7-0.2,1,0l33.2,19.2c0.3,0.2,0.5,0.5,0.5,0.9v38.3c0,0.4-0.2,0.7-0.5,0.9l-33.2,19.2C85.3,157.7,85.2,157.7,85,157.7
					z M84.9,155.5L84.9,155.5L84.9,155.5C85,155.5,85,155.5,84.9,155.5z M54.7,135.9L85,153.4l30.3-17.5v-35L85,83.4l-30.3,17.5
					V135.9z M117.2,136.9c0,0,0,0.1-0.1,0.1L117.2,136.9L117.2,136.9z M52.8,137L52.8,137C52.9,137,52.8,136.9,52.8,137L52.8,137z
					 M117.1,99.8C117.1,99.8,117.1,99.9,117.1,99.8L117.1,99.8L117.1,99.8z M52.8,99.8L52.8,99.8C52.8,99.9,52.9,99.8,52.8,99.8
					L52.8,99.8z M85,81.3L85,81.3L85,81.3L85,81.3z"/>
			</g>
		</g>
	</g>
	<g>
		<g>
			<g>
				<rect x="84.1" y="118.4" class="st0" width="1.9" height="37.2"/>
			</g>
			<g>
				<path class="st0" d="M85.9,156.6H84c-0.6,0-1-0.4-1-1v-37.2c0-0.6,0.4-1,1-1h1.9c0.6,0,1,0.4,1,1v37.2
					C86.9,156.2,86.5,156.6,85.9,156.6z"/>
			</g>
		</g>
	</g>
	<g>
		<g>
			<g>
				<polygon class="st0" points="85,119.5 52.3,100.6 53.2,99 85,117.3 116.8,99 117.7,100.6 				"/>
			</g>
			<g>
				<path class="st0" d="M85,120.5c-0.2,0-0.3,0-0.5-0.1l-32.7-18.9c-0.5-0.3-0.6-0.9-0.4-1.4l0.9-1.6c0.1-0.2,0.4-0.4,0.6-0.5
					c0.3-0.1,0.5,0,0.8,0.1l31.3,18l31.3-18c0.5-0.3,1.1-0.1,1.4,0.4l0.9,1.6c0.1,0.2,0.2,0.5,0.1,0.8s-0.2,0.5-0.5,0.6l-32.7,18.9
					C85.3,120.4,85.2,120.5,85,120.5z M84.9,118.3L84.9,118.3L84.9,118.3C85,118.3,85,118.3,84.9,118.3z"/>
			</g>
		</g>
	</g>
</g>
</svg>
