<?xml version="1.0" encoding="utf-8"?>
<!-- Generator: Adobe Illustrator 25.1.0, SVG Export Plug-In . SVG Version: 6.00 Build 0)  -->
<svg version="1.1" id="Capa_1" xmlns="http://www.w3.org/2000/svg" xmlns:xlink="http://www.w3.org/1999/xlink" x="0px" y="0px"
	 viewBox="0 0 170 170" style="enable-background:new 0 0 170 170;" xml:space="preserve">
<style type="text/css">
	.st0{fill:#FFFFFF;}
	.st1{opacity:0.39;}
</style>
<g>
	<g>
		<g>
			<g>
				<path class="st0" d="M85,148.3c-16.9,0-32.8-6.6-44.8-18.5c-12-12-18.5-27.9-18.5-44.8s6.6-32.8,18.5-44.8
					c12-12,27.9-18.5,44.8-18.5s32.8,6.6,44.8,18.5c12,12,18.5,27.9,18.5,44.8s-6.6,32.8-18.5,44.8
					C117.8,141.7,101.9,148.3,85,148.3z M85,25.8c-32.6,0-59.2,26.5-59.2,59.2c0,32.6,26.5,59.2,59.2,59.2
					c32.6,0,59.2-26.5,59.2-59.2C144.2,52.4,117.6,25.8,85,25.8z"/>
			</g>
		</g>
		<g>
			<g>
				<path class="st0" d="M119.8,50.2c-9.3-9.3-21.7-14.4-34.8-14.4c-5.2,0-10.3,0.8-15.2,2.4l0.8,1.9c4.5-1.4,9.3-2.2,14.4-2.2
					c26,0,47.2,21.2,47.2,47.2S111,132.2,85,132.2S37.8,111,37.8,85C37.8,66.9,48,51.2,63,43.2l-0.8-1.9c-4.4,2.3-8.4,5.3-12,8.9
					C40.9,59.5,35.7,71.8,35.7,85s5.1,25.5,14.4,34.8s21.7,14.4,34.8,14.4s25.5-5.1,34.8-14.4s14.4-21.7,14.4-34.8
					C134.3,71.8,129.1,59.5,119.8,50.2z"/>
			</g>
		</g>
		<g>
			<g>
				<path class="st0" d="M85,51.7c-3.1,0-6.1,0.4-8.9,1.2l0.8,1.9c2.6-0.7,5.3-1.1,8.1-1.1c17.2,0,31.2,14,31.2,31.2
					s-14,31.2-31.2,31.2s-31.2-14-31.2-31.2c0-11.5,6.2-21.5,15.4-26.9l-0.8-1.9c-10,5.7-16.7,16.5-16.7,28.8
					c0,18.3,14.9,33.3,33.3,33.3s33.3-14.9,33.3-33.3S103.3,51.7,85,51.7z"/>
			</g>
		</g>
		<g>
			<g>
				<path class="st0" d="M85,67.8c-0.9,0-1.8,0.1-2.7,0.2l0.8,2c0.6-0.1,1.2-0.1,1.8-0.1c8.4,0,15.2,6.8,15.2,15.2
					s-6.8,15.2-15.2,15.2S69.8,93.4,69.8,85c0-4.8,2.2-9.1,5.7-11.9l-0.8-2c-4.2,3.1-7,8.2-7,13.8c0,9.5,7.7,17.2,17.2,17.2
					s17.2-7.7,17.2-17.2C102.2,75.5,94.5,67.8,85,67.8z"/>
			</g>
		</g>
		<g>
			<g>
				<circle class="st0" cx="85" cy="85" r="2.3"/>
			</g>
		</g>
		<g>
			<g>
				
					<rect x="72.1" y="29.7" transform="matrix(0.9224 -0.3863 0.3863 0.9224 -16.2316 32.6529)" class="st0" width="2.1" height="54"/>
			</g>
		</g>
		<g class="st1">
			<g>
				<path class="st0" d="M85,85L33,60.1c3.1-6.4,7.3-12.3,12.5-17.1s11.3-8.8,17.9-11.4L85,85z"/>
			</g>
		</g>
	</g>
</g>
</svg>
