<?xml version="1.0" encoding="utf-8"?>
<!-- Generator: Adobe Illustrator 25.1.0, SVG Export Plug-In . SVG Version: 6.00 Build 0)  -->
<svg version="1.1" id="Capa_1" xmlns="http://www.w3.org/2000/svg" xmlns:xlink="http://www.w3.org/1999/xlink" x="0px" y="0px"
	 viewBox="0 0 170 170" style="enable-background:new 0 0 170 170;" xml:space="preserve">
<style type="text/css">
	.st0{fill:#FFFFFF;}
</style>
<g>
	<g>
		<g>
			<g>
				<g>
					<path class="st0" d="M72.7,103.9c0,0.3,0,0.5-0.1,0.8c-0.3,1.5-1.7,2.5-3.2,2.5c-1.6,0-2.9-1.1-3.2-2.5
						c-0.1-0.2-0.1-0.5-0.1-0.8l0,0c0-0.5,0.1-1,0.4-1.4l0.5-0.8l2.5-4.3l2.5,4.3l0.5,0.8C72.5,103,72.7,103.4,72.7,103.9
						L72.7,103.9z"/>
				</g>
			</g>
			<g>
				<g>
					<path class="st0" d="M78.3,114.8c0,0.3,0,0.5-0.1,0.8c-0.3,1.5-1.7,2.5-3.2,2.5c-1.6,0-2.9-1.1-3.2-2.5
						c-0.1-0.2-0.1-0.5-0.1-0.8l0,0c0-0.5,0.1-1,0.4-1.4l0.5-0.8l2.5-4.3l2.5,4.3l0.5,0.8C78.2,113.8,78.3,114.3,78.3,114.8
						L78.3,114.8z"/>
				</g>
			</g>
			<g>
				<g>
					<polygon class="st0" points="90.6,123.1 89,122.7 91.3,112 94.6,116.3 96.9,101.1 102.4,109.5 107.9,95.1 109.5,95.7 
						102.8,113.2 97.9,105.8 95.7,120.5 92.2,115.9 					"/>
				</g>
			</g>
			<g>
				<g>
					<g>
						<polygon class="st0" points="91.1,17.4 91.1,19.4 79.1,19.4 79.1,17.3 						"/>
					</g>
				</g>
				<g>
					<g>
						
							<rect x="84" y="19.9" transform="matrix(4.812377e-03 -1 1 4.812377e-03 56.7918 112.7796)" class="st0" width="2.1" height="15.9"/>
					</g>
				</g>
				<g>
					<g>
						<path class="st0" d="M82.7,27.7v-9.3h4.6v9.3H82.7z M83.7,19.4v7.4h2.8v-7.4H83.7z"/>
					</g>
				</g>
				<g>
					<g>
						<path class="st0" d="M82.6,58.2v-5.1h4.6v5.1H82.6z M83.6,54.1v3.2h2.8v-3.2H83.6z"/>
					</g>
				</g>
				<g>
					<g>
						<path class="st0" d="M88.7,53.3h-7.5v-6.6l-0.6-1v8.1h8.6v-8.1l-0.6,1L88.7,53.3z M80.7,28.1v13.1l0.6-1V28.7h7.5v11.5l0.6,1
							V28.1H80.7z"/>
						<path class="st0" d="M89.3,54.4L89.3,54.4h-8.6c-0.1,0-0.3-0.1-0.4-0.1c-0.1-0.1-0.1-0.2-0.1-0.4v-8.1c0-0.2,0.2-0.4,0.4-0.5
							c0.2-0.1,0.5,0,0.6,0.2l0.6,1c0,0.1,0.1,0.2,0.1,0.2v6.1h6.5v-6.1c0-0.1,0-0.2,0.1-0.2l0.6-1c0.1-0.2,0.3-0.3,0.6-0.2
							c0.2,0.1,0.4,0.3,0.4,0.5v8.1C89.8,54.2,89.5,54.4,89.3,54.4z M89.3,41.7c-0.2,0-0.3-0.1-0.4-0.3l-0.6-1
							c0-0.1-0.1-0.2-0.1-0.2v-11h-6.5v11c0,0.1,0,0.2-0.1,0.2l-0.6,1c-0.1,0.2-0.3,0.3-0.6,0.2c-0.2-0.1-0.4-0.3-0.4-0.5V28
							c0-0.1,0.1-0.3,0.1-0.4c0.1-0.1,0.2-0.1,0.4-0.1l0,0h8.6c0.3,0,0.5,0.2,0.5,0.5v13.1C89.6,41.3,89.4,41.5,89.3,41.7
							C89.4,41.7,89.4,41.7,89.3,41.7z"/>
					</g>
				</g>
				<g>
					<g>
						
							<rect x="72.8" y="69.3" transform="matrix(3.933693e-03 -1 1 3.933693e-03 14.7728 154.3146)" class="st0" width="24.1" height="0.9"/>
					</g>
				</g>
				<g>
					<g>
						<g>
							<path class="st0" d="M89.6,43.5c-0.2-0.2-0.4-0.3-0.6-0.4c-0.6-0.4-1.3-0.5-2-0.3c0.5-0.5,0.8-1.2,0.8-1.9
								c0-0.2,0-0.5-0.1-0.7l-0.1-0.5l-0.1,0.5c-0.3,1.1-1.3,1.8-2.4,1.8s-2.1-0.8-2.4-1.9l-0.1-0.5l-0.1,0.5
								c-0.1,0.2-0.1,0.5-0.1,0.7c0,0.7,0.3,1.4,0.7,1.9c-0.7-0.2-1.4-0.1-2,0.3c-0.2,0.1-0.4,0.3-0.6,0.4l-0.4,0.3l0.5-0.1
								c1.1-0.3,2.2,0.2,2.8,1.2c0.6,1,0.4,2.2-0.4,3l-0.4,0.3L83,48c0.2-0.1,0.5-0.1,0.7-0.3c0.6-0.3,1.1-0.9,1.3-1.6
								c0.2,0.7,0.6,1.3,1.3,1.6c0.2,0.1,0.4,0.2,0.7,0.3l0.5,0.1L87,47.8c-0.8-0.8-0.9-2-0.4-3c0.6-1,1.7-1.4,2.8-1.1l0.5,0.1
								L89.6,43.5z M85,44.9L85,44.9c-0.6-0.1-1-0.5-1-1c0-0.1,0-0.3,0.1-0.4c0.1-0.1,0.1-0.2,0.2-0.3c0.2-0.2,0.4-0.3,0.7-0.3
								c0.3,0,0.5,0.1,0.7,0.3c0.1,0.1,0.2,0.3,0.3,0.5c0,0.1,0,0.1,0,0.2c0,0.4-0.3,0.8-0.7,1C85.2,44.8,85.1,44.9,85,44.9z"/>
						</g>
					</g>
					<g>
						<g>
							<path class="st0" d="M82.5,46.6c-0.7-0.7-1.1-1.6-1.1-2.6v-0.1h0.9V44c0,1,0.5,1.9,1.3,2.3L83.2,47
								C82.9,46.9,82.7,46.7,82.5,46.6z"/>
						</g>
					</g>
					<g>
						<g>
							<path class="st0" d="M86.8,47.1l-0.4-0.8c0.8-0.5,1.4-1.4,1.4-2.3h0.9C88.6,45.2,87.9,46.4,86.8,47.1z"/>
						</g>
					</g>
					<g>
						<g>
							<path class="st0" d="M83.7,41.6l-0.4-0.8c0.5-0.3,1.1-0.4,1.7-0.4s1.2,0.2,1.8,0.5l-0.4,0.8c-0.4-0.2-0.9-0.4-1.3-0.4
								C84.6,41.2,84.1,41.3,83.7,41.6z"/>
						</g>
					</g>
				</g>
			</g>
			<g>
				<g>
					<path class="st0" d="M85,139.2L51.8,120V81.7L85,62.6l33.2,19.2V120L85,139.2z M53.7,118.9L85,137l31.3-18.1V82.8L85,64.7
						L53.7,82.8V118.9z"/>
				</g>
				<g>
					<path class="st0" d="M85,140.2c-0.2,0-0.3,0-0.5-0.1l-33.2-19.2c-0.3-0.2-0.5-0.5-0.5-0.9V81.7c0-0.4,0.2-0.7,0.5-0.9
						l33.2-19.2c0.3-0.2,0.7-0.2,1,0l33.2,19.2c0.3,0.2,0.5,0.5,0.5,0.9V120c0,0.4-0.2,0.7-0.5,0.9L85.5,140
						C85.3,140.1,85.2,140.2,85,140.2z M84.9,138L84.9,138L84.9,138C85,138,85,138,84.9,138z M54.7,118.3L85,135.8l30.3-17.5v-35
						L85,65.9L54.7,83.4V118.3z M117.2,119.4C117.2,119.4,117.2,119.5,117.2,119.4L117.2,119.4L117.2,119.4z M52.8,119.4L52.8,119.4
						C52.9,119.4,52.8,119.4,52.8,119.4L52.8,119.4z M117.1,82.3C117.1,82.3,117.1,82.4,117.1,82.3L117.1,82.3L117.1,82.3z
						 M52.8,82.3L52.8,82.3C52.8,82.3,52.9,82.3,52.8,82.3L52.8,82.3z M85,63.7L85,63.7L85,63.7L85,63.7z"/>
				</g>
			</g>
			<g>
				<g>
					<rect x="84.1" y="100.9" class="st0" width="1.9" height="37.2"/>
				</g>
				<g>
					<path class="st0" d="M85.9,139.1H84c-0.6,0-1-0.4-1-1v-37.2c0-0.6,0.4-1,1-1h1.9c0.6,0,1,0.4,1,1v37.2
						C86.9,138.6,86.5,139.1,85.9,139.1z"/>
				</g>
			</g>
			<g>
				<g>
					<polygon class="st0" points="85,102 52.3,83.1 53.2,81.4 85,99.8 116.8,81.4 117.7,83.1 					"/>
				</g>
				<g>
					<path class="st0" d="M85,103c-0.2,0-0.3,0-0.5-0.1l-32.7-19c-0.5-0.3-0.6-0.9-0.4-1.4l0.9-1.6c0.1-0.2,0.4-0.4,0.6-0.5
						c0.3-0.1,0.5,0,0.8,0.1l31.3,18l31.3-18c0.5-0.3,1.1-0.1,1.4,0.4l0.9,1.6c0.1,0.2,0.2,0.5,0.1,0.8s-0.2,0.5-0.5,0.6l-32.7,18.9
						C85.3,102.9,85.2,103,85,103z M84.9,100.8L84.9,100.8L84.9,100.8C85,100.8,85,100.8,84.9,100.8z"/>
				</g>
			</g>
		</g>
		<g>
			<g>
				<path class="st0" d="M124.6,57.2c-8.9-8.9-20.3-14.5-32.6-16v3.7c25.6,3.4,45.4,25.3,45.4,51.8c0,28.8-23.5,52.3-52.3,52.3
					s-52.3-23.5-52.3-52.3c0-26.4,19.7-48.3,45.1-51.8v-3.7c-12.2,1.5-23.6,7.1-32.4,15.9C34.9,67.7,29.1,81.8,29.1,96.7
					s5.8,29,16.4,39.5C56,146.9,70.1,152.7,85,152.7s29-5.8,39.6-16.4S141,111.7,141,96.8C140.9,81.8,135.1,67.7,124.6,57.2z"/>
			</g>
		</g>
	</g>
</g>
</svg>
