<?xml version="1.0" encoding="utf-8"?>
<!-- Generator: Adobe Illustrator 25.1.0, SVG Export Plug-In . SVG Version: 6.00 Build 0)  -->
<svg version="1.1" id="Capa_1" xmlns="http://www.w3.org/2000/svg" xmlns:xlink="http://www.w3.org/1999/xlink" x="0px" y="0px"
	 viewBox="0 0 170 170" style="enable-background:new 0 0 170 170;" xml:space="preserve">
<style type="text/css">
	.st0{fill:#FFFFFF;}
</style>
<g>
	<g>
		<g>
			<g>
				<rect x="34.1" y="131.4" class="st0" width="96" height="3.2"/>
				<path class="st0" d="M130,135.1H34c-0.3,0-0.5-0.2-0.5-0.5v-3.2c0-0.3,0.2-0.5,0.5-0.5h96c0.3,0,0.5,0.2,0.5,0.5v3.2
					C130.5,134.8,130.3,135.1,130,135.1z M34.6,134.1h95v-2.2h-95C34.6,131.9,34.6,134.1,34.6,134.1z"/>
			</g>
		</g>
		<g>
			<g>
				<polygon class="st0" points="101.2,131.4 96.5,122.4 67.6,122.4 62.9,131.4 61.5,130.7 66.7,120.8 97.4,120.8 102.6,130.7 				
					"/>
			</g>
		</g>
		<g>
			<g>
				<path class="st0" d="M129.9,131.6H34.2l9.1-25.4h77.4L129.9,131.6z M36.5,130h91.1l-8-22.2H44.5L36.5,130z"/>
				<path class="st0" d="M129.9,132.1H34.2c-0.2,0-0.3-0.1-0.4-0.2c-0.1-0.1-0.1-0.3-0.1-0.5l9.1-25.4c0.1-0.2,0.3-0.3,0.5-0.3h77.4
					c0.2,0,0.4,0.1,0.5,0.3l9.1,25.4c0.1,0.2,0,0.3-0.1,0.5C130.2,132,130,132.1,129.9,132.1z M34.9,131.1h94.2l-8.8-24.4H43.7
					L34.9,131.1z M127.6,130.5H36.5c-0.2,0-0.3-0.1-0.4-0.2c-0.1-0.1-0.1-0.3-0.1-0.5l8-22.2c0.1-0.2,0.3-0.3,0.5-0.3h75.1
					c0.2,0,0.4,0.1,0.5,0.3l8,22.2c0.1,0.2,0,0.3-0.1,0.5C127.9,130.4,127.8,130.5,127.6,130.5z M37.2,129.5h89.7l-7.6-21.2H44.8
					L37.2,129.5z"/>
			</g>
		</g>
		<g>
			<g>
				<path class="st0" d="M114.5,84.9v9.8c0.5-0.5,1-1.1,1.5-1.7v-8.2L114.5,84.9L114.5,84.9z M112.8,68.6H51.3
					c-1.8,0-3.2,1.4-3.2,3.2v31.9h68V71.8C116.1,70,114.6,68.6,112.8,68.6z M114.5,102.2h-65V71.8c0-0.9,0.8-1.7,1.7-1.7h61.5
					c1,0,1.7,0.8,1.7,1.7v30.4H114.5z"/>
			</g>
		</g>
		<g>
			<g>
				<path class="st0" d="M121,70.3v36.6h-1.6V70.3c0-1.4-0.7-2.6-1.7-3.3c-0.7-0.5-1.6-0.8-2.5-0.8H48.9c-2.3,0-4.2,1.9-4.2,4.2V107
					h-1.6V70.3c0-3.2,2.6-5.8,5.8-5.8h66.3c1.9,0,3.6,1,4.7,2.4C120.6,67.9,121,69.1,121,70.3z"/>
				<path class="st0" d="M121.5,107.4h-2.6V70.3c0-1.2-0.6-2.3-1.5-2.9c-0.6-0.5-1.4-0.7-2.2-0.7H48.9c-2,0-3.7,1.6-3.7,3.7v37.1
					h-2.6V70.3c0-3.4,2.8-6.3,6.3-6.3h66.3c2,0,3.9,1,5.1,2.6c0.8,1.1,1.2,2.3,1.2,3.6V107.4z M119.9,106.4h0.6V70.3
					c0-1.1-0.3-2.2-1-3.1c-1-1.4-2.6-2.2-4.3-2.2H48.9c-2.9,0-5.3,2.4-5.3,5.3v36.1h0.6V70.3c0-2.6,2.1-4.7,4.7-4.7h66.3
					c1,0,2,0.3,2.8,0.9c1.2,0.9,1.9,2.3,1.9,3.7C119.9,70.2,119.9,106.4,119.9,106.4z"/>
			</g>
		</g>
		<g>
			<g>
				<path class="st0" d="M111.2,25.1c-21,0-38.2,17.1-38.3,38.1c0,0.1,0,0.1,0,0.2c0,0.5,0,0.9,0,1.4h43.7c0.9,0,1.8,0.3,2.5,0.8
					h7.9c-0.2,4.8-0.8,9.4-1.9,13.6h-4.3v4.5h2.9c-0.4,1-0.8,2.1-1.3,3.2c-0.5,1-1,2-1.6,3v10.5c0.5-0.1,1.1-0.3,1.6-0.5
					c15.6-4.8,27.1-19.4,27.1-36.6C149.5,42.3,132.3,25.1,111.2,25.1z M141,47.5c2.2,4.1,3.6,8.7,3.9,13.6h-13.4
					c-0.1-4.8-0.7-9.4-1.8-13.6H141z M138.2,43h-9.7c-1.3-4-3.2-8.1-5.9-11.5C128.8,33.8,134.2,37.8,138.2,43z M113.4,29.9
					c5,1.7,8.5,8.1,10.3,13.1h-10.3V29.9z M109,29.9V43H98.7C100.5,38,103.9,31.6,109,29.9z M109,47.5v13.6H95.4
					c0.2-4.8,0.8-9.4,1.9-13.6H109z M99.8,31.5c-2.6,3.3-4.5,7.5-5.9,11.5h-9.7C88.2,37.8,93.6,33.8,99.8,31.5z M81.4,47.5h11.3
					c-1,4.3-1.6,8.9-1.8,13.6H77.5C77.8,56.2,79.2,51.6,81.4,47.5z M113.4,61.1V47.5h11.7c1.1,4.2,1.7,8.8,1.9,13.6H113.4z
					 M122.6,95.1c2.6-3.3,4.5-7.5,5.9-11.5h9.7C134.2,88.8,128.8,92.9,122.6,95.1z M141,79.2h-11.3c1-4.3,1.6-8.9,1.8-13.6h13.4
					C144.6,70.4,143.2,75.1,141,79.2z"/>
			</g>
		</g>
	</g>
</g>
</svg>
