<?xml version="1.0" encoding="utf-8"?>
<!-- Generator: Adobe Illustrator 25.1.0, SVG Export Plug-In . SVG Version: 6.00 Build 0)  -->
<svg version="1.1" id="Capa_1" xmlns="http://www.w3.org/2000/svg" xmlns:xlink="http://www.w3.org/1999/xlink" x="0px" y="0px"
	 viewBox="0 0 300 300" style="enable-background:new 0 0 300 300;" xml:space="preserve">
<style type="text/css">
	.st0{fill:#FFFFFF;}
</style>
<g>
	<path class="st0" d="M44.9,146.4H33.2v-11.8h12.3c4.5,0,6.8,2,6.8,6C52.3,144.4,49.9,146.4,44.9,146.4 M53.4,134.5
		c-1.6-1.4-3.8-2.2-6.7-2.2l-16.8,0.1v28.2h3.4v-12h12.5c3.1,0,5.6-0.7,7.4-2.2c1.8-1.4,2.7-3.4,2.7-6
		C55.8,137.9,55,135.9,53.4,134.5L53.4,134.5z M75.2,154.7c-0.3,1-0.9,1.7-1.6,2.4c-1.5,1.5-3.8,2.2-6.9,2.2c-2.8,0-5-0.7-6.5-2.2
		c-1.5-1.4-2.3-3.4-2.3-5.8c0-1.3,0.2-2.4,0.6-3.3s1-1.8,1.7-2.5c1.6-1.4,3.7-2.1,6.4-2.1c6,0,9,2.6,9,7.9
		C75.7,152.6,75.6,153.7,75.2,154.7 M75.8,144.3c-2.1-1.9-5.1-2.8-9.1-2.8c-3.8,0-6.8,1-8.8,2.9c-1.9,1.7-2.8,4.1-2.8,7
		s1,5.3,2.9,7.1c1.1,1,2.3,1.7,3.7,2.1s3.1,0.7,5,0.7c4,0,7.1-0.9,9.2-2.8c1.9-1.7,2.8-4,2.8-7.1C78.7,148.3,77.7,146,75.8,144.3
		L75.8,144.3z M101.4,155.5c0,3.8-3.4,5.7-10.2,5.7c-2.1,0-3.8-0.1-5.2-0.4s-2.6-0.7-3.5-1.3c-0.7-0.5-1.2-1.1-1.6-1.8
		s-0.7-1.7-0.8-2.8h3.2c0,1.5,0.6,2.6,1.7,3.3c1.2,0.8,3.3,1.3,6.3,1.3c4.7,0,7.1-1.2,7.1-3.6c0-1.4-0.8-2.4-2.4-2.9
		c-0.3-0.1-2.2-0.4-5.8-0.8c-3.5-0.4-5.7-0.8-6.6-1.2c-1.9-0.7-2.8-2.1-2.8-4s0.8-3.3,2.5-4.2c0.8-0.4,1.9-0.7,3.1-0.9
		s2.7-0.3,4.3-0.3c6.5,0,9.8,2.1,9.8,6.2h-3c0-2.9-2.3-4.3-6.9-4.3c-2.3,0-4.1,0.3-5.2,0.9s-1.7,1.5-1.7,2.7c0,1.1,0.8,2,2.3,2.5
		c0.9,0.3,3,0.6,6.3,0.9c2.9,0.3,4.9,0.6,6,1.1C100.4,152.2,101.4,153.5,101.4,155.5L101.4,155.5z M113.8,160.6l-1.3,0.2l-0.8,0.1
		c-2.1,0-3.5-0.3-4.5-0.9c-0.9-0.6-1.4-1.6-1.4-3.1V144H102v-1.9h3.7V136h2.9v6.1h5v1.9h-5v12.5c0,0.9,0.2,1.6,0.7,1.9
		s1.4,0.5,2.6,0.5c0.2,0,0.4,0,0.6,0s0.6-0.1,1-0.2L113.8,160.6L113.8,160.6z M133.7,156.3c-0.8,0.6-1.7,1.1-2.7,1.5
		c-1,0.3-2.2,0.5-3.5,0.5c-6,0-9-2.5-9-7.5c0-2.3,0.8-4.1,2.3-5.4c1.5-1.3,3.7-2,6.5-2s5,0.7,6.4,2c1.5,1.3,2.2,3.1,2.2,5.3
		C136,153.2,135.2,155,133.7,156.3 M138.9,142.1H136v3.2c-1.3-1.3-2.2-2.1-2.7-2.4c-1.6-0.9-3.7-1.3-6.3-1.3c-3.8,0-6.6,0.9-8.6,2.6
		c-1.9,1.6-2.8,3.9-2.8,6.8c0,1.5,0.2,2.8,0.7,3.9s1.2,2.1,2.1,2.9c2,1.7,4.8,2.5,8.4,2.5c4.3,0,7.4-1.2,9.2-3.6v3.3
		c0,2.1-0.7,3.7-2,4.9s-3.5,1.7-6.5,1.7c-2.8,0-4.9-0.4-6.1-1.2c-0.9-0.6-1.5-1.6-1.9-3.1h-3c0.3,2.1,1.2,3.6,2.6,4.5
		c1.7,1.1,4.4,1.6,8.4,1.6c7.5,0,11.3-2.8,11.3-8.4L138.9,142.1L138.9,142.1z M154.4,144c-0.9-0.1-1.7-0.2-2.4-0.2
		c-4.7,0-7.1,2.6-7.1,7.8v9H142v-18.5h2.9v3.3h0.2c0.5-1.3,1.2-2.3,2.3-3c1.1-0.6,2.9-1,5.1-1h1.9V144L154.4,144z M157.1,150.2
		c0.4-2.1,1.2-3.7,2.4-4.9c0.8-0.7,1.8-1.2,2.8-1.5s2.2-0.5,3.5-0.5c2.6,0,4.7,0.7,6.3,2.1c1.6,1.4,2.4,3,2.4,4.8L157.1,150.2
		 M174.9,144.4c-1-1-2.3-1.8-3.8-2.2c-1.5-0.5-3.2-0.7-5.2-0.7c-3.7,0-6.6,0.9-8.7,2.6c-2.1,1.7-3.1,4.1-3.1,7.1s1,5.4,3,7.1
		c2.1,1.9,5.2,2.9,9,2.9c1.6,0,3-0.2,4.3-0.5c1.3-0.4,2.5-0.8,3.5-1.5c1.7-1.2,2.8-2.8,3.3-4.6h-3.1c-1.1,3.2-3.7,4.7-8,4.7
		c-3,0-5.3-0.8-6.9-2.3c-1.4-1.3-2.1-3-2.1-5.1h20.5C177.7,148.7,176.8,146.2,174.9,144.4L174.9,144.4z M208.1,153
		c0,5.5-4.4,8.2-13.3,8.2c-5.3,0-9.2-0.9-11.6-2.8c-2-1.6-3-3.9-3-7.1h3.6c0,5.1,3.7,7.7,11,7.7c3.5,0,6.1-0.5,7.7-1.6
		c1.3-0.9,2-2.4,2-4.4s-0.9-3.3-2.7-4.1c-1-0.4-3.5-1-7.5-1.6c-5-0.8-8.3-1.5-9.8-2.3c-2.2-1.1-3.2-3-3.2-5.7c0-2.5,0.9-4.4,2.8-5.6
		c2-1.3,5.4-2,10.2-2c8.7,0,13,2.9,13,8.6h-3.6c0-4.3-3.2-6.5-9.7-6.5c-3.2,0-5.6,0.4-7.1,1.3c-1.4,0.9-2.1,2.3-2.1,4.1
		c0,1.9,0.9,3.2,2.7,4c1,0.4,3.8,1.1,8.5,1.8c4.4,0.7,7.4,1.4,9,2.3C207.1,148.4,208.1,150.3,208.1,153L208.1,153z M237.1,155.8
		c-1.3,1.1-2.8,1.9-4.5,2.4S229,159,227,159c-4.2,0-7.7-1.1-10.3-3.4c-2.6-2.3-3.9-5.3-3.9-9.1c0-4,1.3-7.1,3.9-9.3s6-3.3,10.3-3.3
		s7.8,1.2,10.2,3.5c1.3,1.1,2.3,2.4,2.9,4s0.9,3.2,0.9,5.2C241,150.4,239.7,153.5,237.1,155.8 M239,157.7c1.9-1.3,3.2-2.9,4.1-4.8
		c0.9-1.9,1.3-4,1.3-6.5c0-4.4-1.5-7.9-4.4-10.5c-1.6-1.5-3.4-2.5-5.6-3.2s-4.7-1.1-7.5-1.1c-5.5,0-9.8,1.3-12.9,4
		c-3.1,2.7-4.7,6.3-4.7,10.8c0,4.4,1.6,8,4.7,10.7s7.5,4.1,12.9,4.1c2.1,0,4-0.1,5.6-0.4c1.6-0.3,2.9-0.7,4.1-1.3l5.3,3.6l2.2-2
		L239,157.7L239,157.7z M271.1,160.6h-24.4v-28.2l3.3-0.1v25.9h21L271.1,160.6L271.1,160.6z"/>
</g>
</svg>
