<?xml version="1.0" encoding="utf-8"?>
<!-- Generator: Adobe Illustrator 25.1.0, SVG Export Plug-In . SVG Version: 6.00 Build 0)  -->
<svg version="1.1" id="Capa_1" xmlns="http://www.w3.org/2000/svg" xmlns:xlink="http://www.w3.org/1999/xlink" x="0px" y="0px"
	 viewBox="0 0 300 300" style="enable-background:new 0 0 300 300;" xml:space="preserve">
<style type="text/css">
	.st0{fill-rule:evenodd;clip-rule:evenodd;fill:#FFFFFF;}
	.st1{fill:#FFFFFF;}
</style>
<g>
	<g>
		<path class="st0" d="M143.2,146v-9.2c0-1.2,0.8-2.2,2-2.2h0.3c1.3,0,2,1,2,2.2v19.4c0,4.7-2.3,8.5-6.4,10.9
			c-1.9,1.1-4,1.7-6.2,1.7H134c-4.7,0-8.5-2.3-10.9-6.4c-1.1-1.9-1.7-4-1.7-6.2v-0.9c0-4.7,2.3-8.5,6.4-10.9c1.9-1.1,4-1.7,6.2-1.7
			h0.9C138.2,142.7,140.9,144,143.2,146L143.2,146z M125.9,155.7c0,3.4,1.7,6,4.6,7.6c1.2,0.7,2.5,1,3.9,1c3.4,0,5.8-1.6,7.6-4.4
			c0.8-1.3,1.2-2.8,1.2-4.3c0-3-1.4-5.3-3.8-7c-1.4-1-3.1-1.6-4.9-1.6c-3.7,0-6.3,1.8-7.9,5.1C126.2,153.3,125.9,154.5,125.9,155.7
			L125.9,155.7z M162.7,142.7h0.6c5.1,0,8.9,2.5,11.3,6.9c1,1.8,1.5,3.7,1.5,5.7v0.9c0,4.7-2.3,8.5-6.4,10.9c-1.9,1.1-4,1.7-6.2,1.7
			h-0.9c-4.7,0-8.5-2.3-10.9-6.4c-1.1-1.9-1.7-4-1.7-6.2v-0.9c0-4.7,2.3-8.5,6.4-10.9C158.5,143.3,160.5,142.7,162.7,142.7
			L162.7,142.7z M154.5,155.7c0,3.3,1.6,5.8,4.4,7.5c1.3,0.8,2.8,1.2,4.3,1.2c3.3,0,5.7-1.7,7.4-4.4c0.8-1.3,1.2-2.8,1.2-4.3
			c0-3.1-1.5-5.4-4-7.1c-1.4-0.9-2.9-1.4-4.6-1.4c-3.7,0-6.3,1.8-7.9,5.1C154.8,153.3,154.5,154.5,154.5,155.7L154.5,155.7z
			 M194.3,147.4c-0.7-0.3-1.9-0.4-2.6-0.4c-3.6-0.1-6.3,1.9-7.8,5.1c-0.5,1.1-0.8,2.3-0.8,3.5c0,3.7,2,6.4,5.3,7.9
			c1.2,0.6,2.8,0.7,4.1,0.7c1.2,0,2.8-0.7,3.9-1.2l0.2-0.1h0.8h0.1c1,0.2,1.7,0.8,1.7,1.9v0.4c0,2.7-4.9,3.3-6.7,3.4
			c-6.5,0.5-11.4-3.1-13.3-9.4c-0.3-1.1-0.5-2.2-0.5-3.3V155c0-4.7,2.3-8.5,6.4-10.9c1.9-1.1,4-1.7,6.2-1.7h0.9c2.3,0,4.5,0.7,6.4,2
			l0.2,0.1l0.1,0.2c0.2,0.3,0.4,0.7,0.4,1.1v0.4c0,1.1-0.8,1.7-1.8,1.9h-0.1H197C196.4,148.4,194.9,147.7,194.3,147.4L194.3,147.4z
			 M208.5,150.4c1.7-1.7,3.4-3.4,5.1-5.1c0.5-0.5,2.3-2.4,3-2.4h0.8h0.1c1,0.2,1.7,0.8,1.7,1.9v0.4c0,0.7-0.9,1.6-1.3,2.1
			c-1,1.1-2.1,2.1-3.1,3.1l-5.3,5.4c2.3,2.3,4.5,4.6,6.8,6.8c0.6,0.6,1.2,1.3,1.9,1.9c0.2,0.2,0.5,0.5,0.7,0.8s0.3,0.6,0.3,1v0.5
			v0.1c-0.2,1-0.9,1.8-2,1.8h-0.3c-0.7,0-1.5-0.8-2-1.3c-1-1-2-2-3-3l-3.3-3.3v5.3c0,1.2-0.8,2.2-2,2.2h-0.3c-1.3,0-2-1-2-2.2v-29.6
			c0-1.2,0.8-2.2,2-2.2h0.3c1.3,0,2,1,2,2.2L208.5,150.4L208.5,150.4z M262.8,142.9h0.4c1.3,0,2.2,0.9,2.2,2.2
			c0,1.8-1.7,2.3-3.2,2.3c-2,0-3.8,1.2-5.2,2.5c-1.7,1.7-2.4,3.8-2.4,6.1v10.6c0,1.2-0.8,2.2-2,2.2h-0.3c-1.3,0-2-1-2-2.2v-11.2
			c0-4.3,2.1-7.8,5.6-10.2C257.9,143.7,260.3,142.9,262.8,142.9L262.8,142.9z M231.8,163.8c1.6,0.6,3.4,0.5,5,0.2
			c0.8-0.4,3-1.3,3.7-1.1h0.1l0.1,0.1c0.5,0.2,0.9,0.6,1.2,1c0.6,1.1,0.3,2.3-0.8,2.9l-0.4,0.2c-4.1,2.4-8.5,2.1-12.7-0.2
			c-2-1.1-3.5-2.6-4.6-4.6l-0.3-0.5c-2.7-4.6-2.3-9.4,0.7-13.8c1-1.5,2.4-2.7,4-3.6l0.6-0.3c3.9-2.3,8.1-2.1,12.1-0.1
			c2.2,1.1,3.9,2.6,5.1,4.7l0.2,0.4c0.9,1.5-0.3,2.8-1.4,3.7c-1.4,1-2.7,2.3-4,3.4C237.6,158.8,234.7,161.3,231.8,163.8L231.8,163.8
			z M228.1,161.2c3.2-2.8,6.5-5.6,9.7-8.3c1.1-1,2.3-1.9,3.4-2.9c-0.9-1.1-2.3-1.9-3.6-2.4c-2.5-1-5-0.6-7.3,0.7
			c-3,1.7-4.3,4.5-4.2,8c0,1.4,0.4,2.7,1.1,3.8C227.5,160.5,227.8,160.8,228.1,161.2z"/>
	</g>
	<path class="st1" d="M77.8,148h7.6v-6.9h-7.6V148z M68.8,148h7.6v-6.9h-7.6V148z M59.9,148h7.6v-6.9h-7.6V148z M51,148h7.4v-6.9H51
		V148z M41.9,148h7.6v-6.9h-7.6V148z M51,139.7h7.4v-6.9H51V139.7z M59.9,139.7h7.6v-6.9h-7.6V139.7z M68.8,139.7h7.6v-6.9h-7.6
		V139.7z M68.8,131.3h7.6v-6.9h-7.6V131.3z M109.8,144.9c0,0-3.3-3.1-10-2c-0.7-5.3-6.4-8.4-6.4-8.4s-5.3,6.4-1.5,13.4
		c-1.1,0.5-2.9,1.3-5.6,1.3H36.4c-0.9,3.4-0.9,26.3,24.1,26.3c18,0,31.4-8.4,37.8-23.6C107.8,152.7,109.8,144.9,109.8,144.9z"/>
</g>
</svg>
