<?xml version="1.0" encoding="utf-8"?>
<!-- Generator: Adobe Illustrator 25.1.0, SVG Export Plug-In . SVG Version: 6.00 Build 0)  -->
<svg version="1.1" id="Capa_1" xmlns="http://www.w3.org/2000/svg" xmlns:xlink="http://www.w3.org/1999/xlink" x="0px" y="0px"
	 viewBox="0 0 300 300" style="enable-background:new 0 0 300 300;" xml:space="preserve">
<style type="text/css">
	.st0{fill:#FFFFFF;}
</style>
<g>
	<path class="st0" d="M217.4,131.6c0.7,0.5,1.4,0.8,2.2,1.2c0.6,0.4,1.3,0.7,2,1c0.5,0.3,1.4,0.8,0.9,1.5c-0.4,0.4-1.3,0.4-1.8,0.4
		c-0.8,0.1-1.9,0.1-2.7,0c-1-0.1-2.1,0.2-3.1,0.2c-0.7,0-1.5,0-2.2,0c-0.3,0-0.6,0.1-0.8-0.2c-0.2-0.2-0.1-0.5,0.1-0.7
		c0.2-0.2,0.3-0.6,0.6-0.8c0.2-0.2,0.4-0.3,0.6-0.4c0.5-0.4,0.6-0.7,0.2-1.2c-0.4-0.5-0.7-0.8-0.7-1.4c0-0.8,0.5-1,1.2-1.2
		c1.1-0.3,1-0.1,1.9,0.4C216.1,130.7,217.2,131.4,217.4,131.6z M81.6,131.9c-0.8,0.5-1.5,0.8-2.3,1.2c-0.7,0.3-1.3,0.6-2,1
		c-0.5,0.3-1.5,0.8-0.9,1.5c0.4,0.4,1.3,0.4,1.8,0.5c0.8,0.1,1.9,0.1,2.7,0.1c1-0.1,2.1,0.2,3.1,0.2c0.7,0,1.5,0.1,2.2,0.1
		c0.3,0,0.6,0.1,0.8-0.2c0.2-0.2,0.1-0.5-0.1-0.7s-0.3-0.6-0.5-0.8s-0.4-0.3-0.6-0.4c-0.5-0.4-0.6-0.8-0.2-1.2
		c0.4-0.5,0.7-0.8,0.8-1.4c0-0.8-0.5-1.2-1.2-1.2c-0.9-0.1-0.9,0.1-1.8,0.5C82.9,131.1,81.8,131.8,81.6,131.9z M237.9,137.8
		c-5.8,6.7-16.7,3.3-34.8,12c-24,11.5-25.6,18.3-53.2,18.5c-28.6,0.2-29.2-7.6-54.5-18.9c-20-8.9-31-4.9-33.4-11.9
		c-3.2-9.2,9.6-17.6,16.7-22.5c31.9-22.4,45.8-28.5,70.6-28.5c26.7-1.5,52.5,14.2,71.8,28.5C227.8,120.1,242.3,129.8,237.9,137.8z
		 M150.9,132.1v5.7c5.9-0.5,10.6-5.3,11.2-11.3h-5.7C156,129.3,153.8,131.6,150.9,132.1z M154.2,126.4h-3.3v3.4
		C152.5,129.4,153.8,128.1,154.2,126.4z M154.2,124.2c-0.4-1.7-1.7-3.1-3.3-3.5v3.5H154.2z M137.6,124.2h5.7
		c0.4-2.9,2.6-5.3,5.4-5.8v-5.8C142.7,113.2,138,118.1,137.6,124.2z M148.7,129.8v-3.3h-3.1C146,128,147.2,129.3,148.7,129.8z
		 M143.3,126.4h-5.7c0.6,6,5.3,10.7,11.1,11.3V132C146,131.5,143.8,129.3,143.3,126.4z M148.7,124.2v-3.5c-1.6,0.5-2.8,1.8-3.2,3.5
		H148.7z M162.2,124.2c-0.5-6.1-5.2-11-11.2-11.6v5.8c2.9,0.5,5.1,2.8,5.6,5.8L162.2,124.2z M137.4,154
		c-11.8-4.8-20.1-16.1-20.1-29.4c0-7.2,2.5-13.9,6.7-19.3c-8.7,3.7-20.3,10.7-39.4,24c-3,2.1-12.2,4.6-10,6.6
		c1.6,1.5,10.4,0.4,16.9,2.4C114.6,145.6,125,151.6,137.4,154z M215.7,129.4c-17.8-12.8-30.1-20.1-40-24c4.2,5.3,6.6,12,6.6,19.2
		c0,12.8-7.8,23.9-19,28.9c15-3.4,29.8-11.4,44-15.3c9.7-2.7,13.5-0.5,17.8-2.6C226.9,134.7,218.2,131.1,215.7,129.4z"/>
	<g>
		<g>
			<path class="st0" d="M118.3,209.6c0,0.3,0,0.5,0.1,0.7v-1.5C118.4,209.1,118.3,209.3,118.3,209.6z"/>
			<path class="st0" d="M115.3,209.6c0,0.4,0,0.8,0.1,1.1v-2.2C115.4,208.9,115.3,209.2,115.3,209.6z"/>
			<path class="st0" d="M196.3,180.4h-14.8c-3,0-5.5,2.5-5.5,5.5c0,2.6,1.9,4.9,4.4,5.4v12.9c-0.4,0.1-0.8,0.2-1.2,0.4
				c-0.3-0.1-0.6-0.3-0.9-0.3l-9.5-22.1c-0.5-1.1-1.5-1.8-2.8-1.8h-11.4c-1.4,0-2.8,0.6-3.7,1.5c-1-0.9-2.3-1.5-3.7-1.5h-6.6
				c-1.2,0-2.3,0.7-2.8,1.8l-2.1,4.9l-1.5,3.5l-1.6-3.5l-2.1-4.9c-0.5-1.1-1.6-1.8-2.7-1.8h-6.6c-1,0-1.9,0.2-2.7,0.7
				c-0.8-0.5-1.7-0.7-2.7-0.7h-8c-2.8,0-5.2,2.1-5.5,4.9l-2.3-3.5c-0.6-0.8-1.5-1.4-2.5-1.4h-6.9c-1.4,0-2.9,0.6-3.9,1.6
				s-1.6,2.4-1.6,3.9c0,2.6,1.8,4.8,4.2,5.3v13.5c-1.8,0.9-3,2.8-3,4.9c0,3,2.5,5.5,5.5,5.5h8c2.8,0,5.1-2.1,5.5-4.9l2.2,3.5
				c0.6,0.9,1.5,1.4,2.5,1.4h5.3c0.9,0,1.7-0.4,2.2-1c0.9,0.6,2,1,3.2,1h8c2.5,0,4.5-1.6,5.2-3.8c0.7,2.2,2.8,3.8,5.2,3.8h8
				c0.5,0,1-0.1,1.5-0.2c0.5,0.2,1,0.2,1.6,0.2h8c2.3,0,4.3-1.5,5.1-3.5c0.8,2,2.8,3.5,5.1,3.5h8.4c0.8,0,1.6-0.2,2.3-0.5
				c0.7,0.3,1.5,0.5,2.3,0.5h12.9c3,0,5.5-2.5,5.5-5.5c0-2.1-1.2-4-3-4.9c6.3-0.3,11.3-5.5,11.3-11.9v-0.5
				C208.2,185.7,202.9,180.4,196.3,180.4z M150,190.6c0.3-0.2,0.7-0.4,1-0.7c0.8,0.8,2,1.3,3.2,1.4l-4.2,9.9V190.6z M117.6,187.6
				c-0.3,0.3-0.8,0.6-1.3,0.7c-0.1,0-0.3,0-0.5,0h-0.4V212h-5.3l-12.5-19.7V207h2.3c1.4,0,2.5,1.1,2.5,2.5s-1.1,2.5-2.5,2.5h-8
				c-1.4,0-2.5-1.1-2.5-2.5s1.1-2.5,2.5-2.5h0.5v-18.7h-1.7c-1.4,0-2.5-1.1-2.5-2.5c0-0.7,0.3-1.3,0.7-1.8c0.4-0.5,1.1-0.7,1.8-0.7
				h6.9l2.8,4.3l9.7,15v-14.3h-2.3c-1.4,0-2.5-1.1-2.5-2.5s1.1-2.5,2.5-2.5h8c0.2,0,0.3,0,0.5,0c0.5,0.1,1,0.3,1.3,0.7
				c0.4,0.5,0.7,1.1,0.7,1.7C118.3,186.6,118.1,187.2,117.6,187.6z M205.2,192.8c0,4.9-4,8.9-8.9,8.9h-7.9v5.4h6
				c1.4,0,2.5,1.1,2.5,2.5s-1.1,2.5-2.5,2.5h-12.9c-1,0-1.9-0.6-2.3-1.5c-0.4,0.9-1.3,1.5-2.3,1.5h-8.4c-1.4,0-2.5-1.1-2.5-2.5
				s1.1-2.5,2.5-2.5h1.7L169,204h-11.3l-1.3,3.1h2c1.4,0,2.5,1.1,2.5,2.5s-1.1,2.5-2.5,2.5h-8c-0.6,0-1.1-0.2-1.6-0.6
				c-0.4,0.4-1,0.6-1.5,0.6h-8c-1.4,0-2.5-1.1-2.5-2.5s1.1-2.5,2.5-2.5h2.6v-14.3l-5.1,12.7h-4.5l-5.9-13.1V207h2.3
				c1.4,0,2.5,1.1,2.5,2.5s-1.1,2.5-2.5,2.5h-8c-1.1,0-2.1-0.7-2.4-1.8c-0.1-0.2-0.1-0.5-0.1-0.7c0-0.3,0-0.5,0.1-0.7
				c0.3-1,1.3-1.8,2.4-1.8h0.6v-18.7h-0.2c-0.2,0-0.3,0-0.4,0c-0.5-0.1-1-0.3-1.3-0.7c-0.4-0.5-0.7-1.1-0.7-1.7
				c0-0.7,0.3-1.3,0.7-1.7l0,0c0.3-0.4,0.8-0.6,1.3-0.7c0.1,0,0.3,0,0.4,0h6.6l2.1,4.9l4.3,9.8l4.3-9.8l2.1-4.9h6.6
				c1.4,0,2.5,1.1,2.5,2.5c0,0.7-0.3,1.3-0.7,1.8s-1.1,0.7-1.8,0.7H147v18.7h0.2c0.6,0,1.1,0.2,1.5,0.6c0.4-0.3,1-0.6,1.6-0.6h0.5
				l7.9-18.7h-4c-1.4,0-2.5-1.1-2.5-2.5s1.1-2.5,2.5-2.5h11.4l10.2,23.7h0.7c1,0,1.9,0.6,2.3,1.5c0.4-0.9,1.3-1.5,2.3-1.5h1.9v-18.7
				h-1.9c-1.4,0-2.5-1.1-2.5-2.5s1.1-2.5,2.5-2.5h14.8c4.9,0,8.9,4,8.9,8.9L205.2,192.8L205.2,192.8z"/>
			<path class="st0" d="M196.2,188.7h-7.8v7.8h7.8c1.1,0,2-0.4,2.8-1.1c0.7-0.7,1.1-1.7,1.1-2.8
				C200.1,190.4,198.4,188.7,196.2,188.7z M196.9,193.2c-0.1,0.1-0.3,0.3-0.6,0.3h-4.8v-1.8h4.8c0.5,0,0.9,0.4,0.9,0.9
				C197.1,192.8,197,193.1,196.9,193.2z"/>
			<polygon class="st0" points="166.9,198.7 160,198.7 163.6,190.4 			"/>
		</g>
		<g>
			<path class="st0" d="M115.3,209.6c0,0.4,0,0.8,0.1,1.1v-2.2C115.4,208.9,115.3,209.2,115.3,209.6z"/>
			<path class="st0" d="M118.3,209.6c0,0.3,0,0.5,0.1,0.7v-1.5C118.4,209.1,118.3,209.3,118.3,209.6z"/>
		</g>
	</g>
</g>
</svg>
