<?xml version="1.0" encoding="utf-8"?>
<!-- Generator: Adobe Illustrator 25.1.0, SVG Export Plug-In . SVG Version: 6.00 Build 0)  -->
<svg version="1.1" id="Capa_1" xmlns="http://www.w3.org/2000/svg" xmlns:xlink="http://www.w3.org/1999/xlink" x="0px" y="0px"
	 viewBox="0 0 300 300" style="enable-background:new 0 0 300 300;" xml:space="preserve">
<style type="text/css">
	.st0{fill:#FFFFFF;}
</style>
<g>
	<path class="st0" d="M254.8,155.8l-7-26.6c-0.5-2-2-3.5-4-4l-26.6-7.2c-1.9-0.5-4,0-5.4,1.4l-19.5,19.4c-1.4,1.4-2,3.5-1.5,5.4
		l7,26.6c0.5,1.9,2,3.5,4,4l26.5,7.2c2,0.5,4,0,5.5-1.4l19.5-19.4C254.7,159.8,255.3,157.7,254.8,155.8z M231.6,164.2H227L216.7,143
		c0.3,2.8,0.5,8.4,0.5,8.4v12.8h-3.4v-25.1h4.8l10.1,21.3c-0.4-2.5-0.5-8.8-0.5-8.8l0.1-12.5h3.2L231.6,164.2L231.6,164.2z"/>
	<path class="st0" d="M37,164.6h5.7v-16.4c0,0-0.4-5.5-0.8-9.2l11.2,25.6h8v-32.3h-5.7l-0.1,16.2c0,0,0.3,6.4,0.9,9.6L45,132.3h-8
		V164.6z"/>
	<path class="st0" d="M88.9,154c0-0.5,0-1.1,0-1.7c0-0.7,0-1.4-0.1-2.1c-0.6-6.3-4-11.1-11.1-11.1c-6.2,0-10,4.8-10.7,11.1
		c-0.1,0.7-0.1,1.4-0.1,2.1c0,0.6,0,1.1,0.1,1.7c0.5,6.5,4.1,11.4,11.1,11.4c0,0,6.5,0.3,9.8-3.3l-0.6-0.8l-1.8-2.6
		c0,0-4.7,3.4-8.5,1.9c-0.1,0-0.1-0.1-0.2-0.1c0,0,0,0-0.1,0c-2.1-0.9-3.5-3.3-3.8-6.5L88.9,154L88.9,154z M72.9,150.2
		c0.4-3.9,1.9-6.9,5-6.9c3.8,0,4.8,2.9,5,6.9H72.9z"/>
	<path class="st0" d="M101.5,165.4c0,0-6.5,0.2-10-3.5l3.1-3.5c0,0,2.8,2.9,6.6,2.6c3.8-0.4,5.6-2.1,4-4.7c0,0-0.7-1-3.5-1.9
		c-0.5-0.2-1.2-0.4-1.9-0.5c0,0,0,0-0.1,0c-0.3-0.1-0.7-0.2-1-0.3c-3.2-1.2-6.1-3.3-6.1-7.1c0.5-5,5.3-7.3,9.8-7.2s8.7,2.9,8.7,2.9
		l-2.6,3.8c-2.5-1.5-3.3-1.7-5.8-2s-4.5,1.3-4,3.1c0.3,1.1,2.5,2,4.3,2.7l0,0c3.6,0.9,7.8,2.1,8.6,6.1S110.6,165.1,101.5,165.4z"/>
	<path class="st0" d="M101.5,154.3c-0.6-0.2-1.3-0.3-1.9-0.5C100.3,153.9,100.9,154.1,101.5,154.3z"/>
	<path class="st0" d="M99.5,153.7c-0.4-0.1-0.7-0.2-1-0.3C98.9,153.5,99.2,153.6,99.5,153.7z"/>
	<path class="st0" d="M123.7,165.4c0,0-6.5,0.2-10-3.5l3.1-3.5c0,0,2.8,2.9,6.6,2.6c3.8-0.4,5.6-2.1,4-4.7c0,0-0.7-1-3.5-1.9
		c-0.5-0.2-1.2-0.4-1.9-0.5c0,0,0,0-0.1,0c-0.3-0.1-0.7-0.2-1-0.3c-3.2-1.2-6.1-3.3-6.1-7.1c0.5-5,5.3-7.3,9.8-7.2
		c4.5,0.1,8.7,2.9,8.7,2.9l-2.6,3.8c-2.5-1.5-3.3-1.7-5.8-2s-4.5,1.3-4,3.1c0.3,1.1,2.5,2,4.3,2.7l0,0c3.6,0.9,7.8,2.1,8.6,6.1
		S132.9,165.1,123.7,165.4z"/>
	<path class="st0" d="M173.1,165.4c0,0-6.5,0.2-10-3.5l3.1-3.5c0,0,2.8,2.9,6.6,2.6c3.8-0.4,5.6-2.1,4-4.7c0,0-0.7-1-3.5-1.9
		c-0.5-0.2-1.2-0.4-1.9-0.5c0,0,0,0-0.1,0c-0.3-0.1-0.7-0.2-1-0.3c-3.2-1.2-6.1-3.3-6.1-7.1c0.5-5,5.3-7.3,9.8-7.2s8.7,2.9,8.7,2.9
		l-2.6,3.8c-2.5-1.5-3.3-1.7-5.8-2s-4.5,1.3-4,3.1c0.3,1.1,2.5,2,4.3,2.7l0,0c3.6,0.9,7.8,2.1,8.6,6.1S182.2,165.1,173.1,165.4z"/>
	<path class="st0" d="M123.8,154.3c-0.6-0.2-1.3-0.3-1.9-0.5C122.6,153.9,123.2,154.1,123.8,154.3z"/>
	<path class="st0" d="M121.8,153.7c-0.4-0.1-0.7-0.2-1-0.3C121.1,153.5,121.5,153.6,121.8,153.7z"/>
	<path class="st0" d="M138.7,139.9h6V158c0,0,0,3.3,3.1,2.9s4.7-3.5,4.7-3.5v-17.5h6.1v24.9h-5.2v-2.1c0,0,0-1-0.2-1.3
		c0,0-2.9,4-7.8,4c-5,0-6.8-4.1-6.8-6S138.7,139.9,138.7,139.9z"/>
	<path class="st0" d="M250.7,119.4c0.1,0,5.5,0,5.5,0v1.2H254v5.5h-1.2v-5.5h-2.2L250.7,119.4L250.7,119.4z"/>
	<polygon class="st0" points="264,126 262.8,126 262.5,121 261,125.4 259.9,125.4 258.4,121 258.1,126 256.9,126 257.2,119.4 
		258.9,119.4 260.4,124 261.9,119.4 263.7,119.4 	"/>
</g>
</svg>
