<?xml version="1.0" encoding="utf-8"?>
<!-- Generator: Adobe Illustrator 25.1.0, SVG Export Plug-In . SVG Version: 6.00 Build 0)  -->
<svg version="1.1" id="Capa_1" xmlns="http://www.w3.org/2000/svg" xmlns:xlink="http://www.w3.org/1999/xlink" x="0px" y="0px"
	 viewBox="0 0 300 300" style="enable-background:new 0 0 300 300;" xml:space="preserve">
<style type="text/css">
	.st0{fill:#FFFFFF;}
</style>
<path class="st0" d="M51.3,144.2v22.5h-6.7v-20.6c0-6.5-3.8-8.9-7.9-8.9c-5.5,0-9.8,3.6-9.8,11.7v18h-6.7v-35.2h6.7v5.5h0.2
	c1.7-3.8,6.2-6.4,11.5-6.4C45.4,130.8,51.3,134.9,51.3,144.2z M84.1,156.3l5,3.8c-3.8,4.8-8.8,7.2-15.5,7.2c-11.2,0-18-7.9-18-18.4
	s7.5-18.3,18-18.3c12.4,0,17,9.4,17,18.4v2.6h-28c0,6.2,5.6,10.1,11.9,10.1C78.6,161.7,81.5,159.7,84.1,156.3L84.1,156.3z
	 M62.6,146.2h21c-0.2-5.8-3.5-10.1-10.1-10.1C67.7,136.1,63,140.6,62.6,146.2L62.6,146.2z M125.7,131.6h-8.1l-8.4,12.4l-8.4-12.4
	h-8.6l12.4,16.3l-13.9,18.7H99l10.3-14.8l10.3,14.8h8.6L113.9,148L125.7,131.6z M166.6,149.2c0,10.3-7.1,18.4-17.9,18.4
	c-5,0-9.8-2.2-12.2-5.8h-0.2V180h-6.7v-48.3h6.7v5h0.2c2.6-3.8,7.4-5.8,12.2-5.8C159.5,130.8,166.6,138.8,166.6,149.2z M159.3,149.2
	c0-7.1-4.5-12.2-11.5-12.2c-7.1,0-11.5,5-11.5,12.2c0,7.1,4.5,12.2,11.5,12.2C154.9,161.3,159.3,156.2,159.3,149.2L159.3,149.2z
	 M206.3,149.2c-0.2,10.1-8.4,18.4-18.6,18.2c-10.1-0.5-18-9.1-17.5-19.2c0.5-9.6,8.1-17.2,17.7-17.5h0.2
	C198.2,130.8,206.5,139,206.3,149.2L206.3,149.2z M199.5,149.2c0-7.1-4.5-12.2-11.5-12.2s-11.5,5.1-11.5,12.2s4.5,12.2,11.5,12.2
	S199.5,156.2,199.5,149.2L199.5,149.2z M225.8,146.4c-2.9-0.7-8.9-1.2-8.9-5.5c0-2.6,2.8-4,5.8-4c2.8,0,5.5,1.2,7.2,3.5l4.6-4
	c-2.4-4.3-7.2-5.8-11.9-5.8c-6.5,0-13.2,3.5-13.2,10.8c0,6.7,5,8.6,10.6,9.9c2.9,0.7,8.4,1.5,8.4,5.5c0,3.1-3.6,4.5-7.1,4.5
	c-3.8,0-6.2-1.9-8.4-4.1l-5,4.1c3.6,4.6,7.8,6.2,13.6,6.2c7.1,0,14.2-3.1,14.2-11C236,150,231.7,147.8,225.8,146.4L225.8,146.4z
	 M273.5,149v2.4h-28v0.2c0,6.2,5.6,10.1,11.9,10.1c4.1,0,7.1-2.1,9.6-5.3l5,3.8c-3.8,4.8-8.8,7.2-15.5,7.2c-11.2,0-18-7.9-18-18.4
	s7.5-18.4,18-18.4C268.8,130.6,273.5,140.1,273.5,149L273.5,149z M266.4,146.2c-0.2-5.8-3.5-10.1-10.1-10.1
	c-5.7,0-10.5,4.4-10.8,10.1C245.4,146.2,266.4,146.2,266.4,146.2z M276.5,125.8l1.7,2.6h-0.8l-1.9-2.6h-1l0.2,2.6H274v-6h2.2
	c1.4,0,1.9,0.5,1.9,1.7C278.1,125,277.4,125.7,276.5,125.8L276.5,125.8z M275.7,125.1c0.8,0,1.7,0,1.7-1c0-0.7-0.7-1-1.4-1h-1.4v2.1
	L275.7,125.1L275.7,125.1z M280.8,125.3c-0.1,2.8-2.3,5-5.1,5.1c-2.8,0-5.1-2.3-5.1-5.1c0.1-2.8,2.3-5,5.1-5.1
	C278.5,120.2,280.8,122.4,280.8,125.3L280.8,125.3z M280.1,125.3c0.1-2.5-1.9-4.5-4.3-4.6c-2.5-0.1-4.5,1.9-4.6,4.3
	c0,0.1,0,0.2,0,0.3c0,2.4,2,4.4,4.4,4.5l0,0C278.1,129.7,280.1,127.7,280.1,125.3L280.1,125.3z"/>
</svg>
