<?xml version="1.0" encoding="utf-8"?>
<!-- Generator: Adobe Illustrator 25.1.0, SVG Export Plug-In . SVG Version: 6.00 Build 0)  -->
<svg version="1.1" id="Capa_1" xmlns="http://www.w3.org/2000/svg" xmlns:xlink="http://www.w3.org/1999/xlink" x="0px" y="0px"
	 viewBox="0 0 300 300" style="enable-background:new 0 0 300 300;" xml:space="preserve">
<style type="text/css">
	.st0{fill:#FFFFFF;}
</style>
<g>
	<g>
		<path class="st0" d="M114.9,136.7c0,2,0.2,3.6,0.6,4.8c0.4,1.2,1,2.5,1.7,3.9c0.3,0.4,0.4,0.9,0.4,1.2c0,0.5-0.3,1.1-1,1.6
			l-3.4,2.3c-0.5,0.3-1,0.5-1.4,0.5c-0.5,0-1.1-0.3-1.6-0.8c-0.8-0.8-1.4-1.7-1.9-2.5c-0.5-0.9-1.1-1.9-1.7-3.2
			c-4.2,5-9.5,7.4-15.9,7.4c-4.5,0-8.1-1.3-10.8-3.9c-2.6-2.6-4-6-4-10.4c0-4.6,1.6-8.3,4.9-11.1c3.3-2.8,7.7-4.2,13.2-4.2
			c1.8,0,3.7,0.2,5.7,0.4s4,0.7,6.2,1.2v-3.9c0-4.1-0.9-7-2.5-8.6c-1.7-1.7-4.6-2.5-8.8-2.5c-1.9,0-3.8,0.2-5.8,0.7
			s-3.9,1.1-5.8,1.8c-0.9,0.4-1.5,0.6-1.9,0.7c-0.4,0.1-0.6,0.2-0.9,0.2c-0.8,0-1.1-0.5-1.1-1.7v-2.6c0-0.9,0.1-1.5,0.4-1.9
			c0.3-0.4,0.8-0.8,1.5-1.1c1.9-1,4.2-1.8,6.8-2.4c2.6-0.7,5.5-1,8.4-1c6.4,0,11.1,1.5,14.1,4.4c3,2.9,4.5,7.3,4.5,13.3v17.5H114.9
			L114.9,136.7z M93,144.9c1.8,0,3.6-0.3,5.6-1c1.9-0.6,3.7-1.8,5.1-3.5c0.9-1,1.5-2.2,1.8-3.5c0.3-1.3,0.5-2.9,0.5-4.7v-2.3
			c-1.6-0.4-3.2-0.7-5-0.9c-1.7-0.2-3.4-0.3-5.1-0.3c-3.6,0-6.3,0.7-8,2.2c-1.8,1.5-2.6,3.5-2.6,6.2c0,2.5,0.6,4.4,2,5.7
			C88.6,144.3,90.5,144.9,93,144.9L93,144.9z M136.3,150.8c-1,0-1.6-0.2-2.1-0.5c-0.4-0.3-0.8-1.1-1.1-2.1l-12.7-41.7
			c-0.3-1.1-0.5-1.8-0.5-2.2c0-0.9,0.4-1.3,1.3-1.3h5.3c1,0,1.7,0.2,2.1,0.5c0.4,0.3,0.8,1.1,1.1,2.1l9.1,35.7l8.4-35.7
			c0.3-1.1,0.6-1.8,1-2.1c0.4-0.3,1.2-0.5,2.2-0.5h4.3c1,0,1.7,0.2,2.2,0.5c0.4,0.3,0.8,1.1,1,2.1l8.5,36.2l9.3-36.2
			c0.3-1.1,0.7-1.8,1.1-2.1c0.4-0.3,1.1-0.5,2.1-0.5h5c0.9,0,1.3,0.4,1.3,1.3c0,0.3-0.1,0.5-0.1,0.9c-0.1,0.3-0.2,0.8-0.4,1.3
			l-13,41.7c-0.3,1.1-0.7,1.8-1.1,2.1c-0.4,0.3-1.1,0.5-2.1,0.5H164c-1,0-1.7-0.2-2.2-0.5c-0.4-0.4-0.8-1.1-1-2.2l-8.4-34.8
			l-8.3,34.8c-0.3,1.1-0.6,1.8-1,2.2c-0.4,0.4-1.2,0.5-2.2,0.5H136.3L136.3,150.8z M205.7,152.2c-2.8,0-5.6-0.3-8.3-1
			c-2.7-0.6-4.8-1.3-6.2-2.2c-0.9-0.5-1.5-1-1.7-1.5c-0.2-0.5-0.3-1-0.3-1.5v-2.8c0-1.1,0.4-1.7,1.2-1.7c0.3,0,0.6,0.1,1,0.2
			c0.3,0.1,0.8,0.3,1.3,0.5c1.8,0.8,3.8,1.5,5.9,1.9c2.2,0.4,4.3,0.6,6.4,0.6c3.4,0,6-0.6,7.9-1.8c1.8-1.2,2.8-2.9,2.8-5.1
			c0-1.5-0.5-2.8-1.5-3.8c-1-1-2.8-1.9-5.5-2.8L201,129c-3.9-1.2-6.9-3.1-8.6-5.5c-1.8-2.4-2.7-5-2.7-7.8c0-2.3,0.5-4.3,1.5-6
			c1-1.7,2.3-3.2,3.9-4.4c1.6-1.2,3.5-2.2,5.6-2.8c2.2-0.6,4.4-0.9,6.8-0.9c1.2,0,2.4,0.1,3.6,0.2c1.2,0.2,2.4,0.4,3.5,0.6
			c1.1,0.3,2.1,0.5,3.1,0.9c1,0.3,1.7,0.6,2.3,1c0.8,0.4,1.3,0.9,1.6,1.3c0.3,0.4,0.5,1,0.5,1.8v2.5c0,1.1-0.4,1.7-1.2,1.7
			c-0.4,0-1.1-0.2-2.1-0.6c-3.1-1.4-6.5-2.1-10.4-2.1c-3.1,0-5.5,0.5-7.2,1.5c-1.7,1-2.5,2.6-2.5,4.8c0,1.5,0.5,2.8,1.6,3.8
			c1.1,1,3.1,2.1,5.9,3l7.7,2.4c3.9,1.2,6.7,3,8.4,5.2c1.7,2.2,2.5,4.7,2.5,7.6c0,2.3-0.5,4.4-1.4,6.3c-1,1.8-2.3,3.5-3.9,4.7
			c-1.7,1.3-3.7,2.3-6,3C211,151.9,208.4,152.2,205.7,152.2L205.7,152.2z"/>
		<path class="st0" d="M215.9,178.5c-17.8,13.1-43.6,20.1-65.7,20.1c-31.1,0-59.1-11.5-80.3-30.6c-1.7-1.5-0.2-3.6,1.8-2.4
			c22.9,13.3,51.1,21.3,80.3,21.3c19.7,0,41.3-4.1,61.3-12.5C216.3,173,218.8,176.3,215.9,178.5L215.9,178.5z M223.3,170
			c-2.3-2.9-15-1.4-20.8-0.7c-1.7,0.2-2-1.3-0.4-2.4c10.1-7.1,26.8-5.1,28.8-2.7c1.9,2.4-0.5,19.1-10,27.1c-1.5,1.2-2.9,0.6-2.2-1
			C220.7,184.9,225.5,172.9,223.3,170L223.3,170z"/>
	</g>
</g>
</svg>
