<?xml version="1.0" encoding="utf-8"?>
<!-- Generator: Adobe Illustrator 25.1.0, SVG Export Plug-In . SVG Version: 6.00 Build 0)  -->
<svg version="1.1" id="regular" xmlns="http://www.w3.org/2000/svg" xmlns:xlink="http://www.w3.org/1999/xlink" x="0px" y="0px"
	 viewBox="0 0 512 512" style="enable-background:new 0 0 512 512;" xml:space="preserve">
<path d="M145.3,297.3H199V496c0,8.8,7.1,16,16,16l85.5,0c8.9,0,16-7.2,16-16V297.3h50.9c8.1,0,14.9-6,15.9-14l10.6-85.3
	c1.2-9.5-6.3-18-15.9-18h-61.5c2.4-52.7-9.3-68.3,25-68.3c23.2-2.8,59.8,9,59.8-16V19.4c0-8-5.9-14.8-13.8-15.9
	c-6.7-0.9-33.2-3.5-66-3.5C172,0,202.8,165.8,199.1,180h-53.7c-8.8,0-16,7.2-16,16v85.3C129.3,290.2,136.5,297.3,145.3,297.3
	L145.3,297.3z M161.3,212H215c8.8,0,16-7.2,16-16v-67.2c0-61.5,33-96.8,90.5-96.8c18.7,0,36,0.9,47.8,1.9v45.8
	c-8.6,4.4-84.8-18.9-84.8,57.5V196c0,8.8,7.2,16,16,16h59.4l-6.7,53.3h-52.8c-8.8,0-16,7.2-16,16V480h-53.4V281.3
	c0-8.8-7.2-16-16-16h-53.7V212z"/>
</svg>
