<?xml version="1.0" encoding="utf-8"?>
<!-- Generator: Adobe Illustrator 25.1.0, SVG Export Plug-In . SVG Version: 6.00 Build 0)  -->
<svg version="1.1" id="regular" xmlns="http://www.w3.org/2000/svg" xmlns:xlink="http://www.w3.org/1999/xlink" x="0px" y="0px"
	 viewBox="0 0 512 512" style="enable-background:new 0 0 512 512;" xml:space="preserve">
<path d="M101.3,512h309.3c55.9,0,101.3-45.5,101.3-101.3V101.3C512,45.5,466.5,0,410.7,0H101.3C45.5,0,0,45.5,0,101.3v309.3
	C0,466.5,45.5,512,101.3,512z M32,101.3C32,63.1,63.1,32,101.3,32h309.3c38.2,0,69.3,31.1,69.3,69.3v309.3
	c0,38.2-31.1,69.3-69.3,69.3H101.3C63.1,480,32,448.9,32,410.7V101.3z"/>
<path d="M256,386.8c72.1,0,130.8-58.7,130.8-130.8S328.1,125.2,256,125.2S125.2,183.9,125.2,256S183.9,386.8,256,386.8L256,386.8z
	 M256,157.2c54.5,0,98.8,44.3,98.8,98.8s-44.3,98.8-98.8,98.8s-98.8-44.3-98.8-98.8S201.5,157.2,256,157.2L256,157.2z"/>
<path d="M391.6,157.1c21,0,36.9-15.8,36.9-36.7c0-21.8-16.7-36.7-36.9-36.7c-21,0-36.9,15.8-36.9,36.7
	C354.8,142.1,371.4,157.1,391.6,157.1L391.6,157.1z M395.4,116.8c6.7,6-8.6,13.2-8.6,3.5C386.8,114.6,394.6,116.1,395.4,116.8z"/>
</svg>
