<?xml version="1.0" encoding="utf-8"?>
<!-- Generator: Adobe Illustrator 25.1.0, SVG Export Plug-In . SVG Version: 6.00 Build 0)  -->
<svg version="1.1" id="regular" xmlns="http://www.w3.org/2000/svg" xmlns:xlink="http://www.w3.org/1999/xlink" x="0px" y="0px"
	 viewBox="0 0 512 512" style="enable-background:new 0 0 512 512;" xml:space="preserve">
<path d="M396.6,512c2.2,0,101.6,0,99.4,0c8.8,0,16-7.2,16-16c-7.5-167.6,39.3-344.5-135.2-344.5c-33.6,0-60.3,11.5-79.6,26.6
	c0-31.2-33.7-13.9-111.4-18.6c-8.8,0-16,7.2-16,16c6.4,302.2-14.4,336.4,16,336.4h99.4c28.9,0,10.5-40.7,16-174.7
	c0-55.3,16-66.2,43.6-66.2c30.6,0,35.7,21.2,35.7,68.9C386.1,471.6,367.8,512,396.6,512z M344.9,239.1
	c-95.8,0-75.6,105.3-75.6,240.9h-67.4V191.5h63.4v27.7c0,15.4,23.4,22.9,31.6,7.5c10.5-19.9,37.8-43.2,80-43.2
	c75.2,0,103.2,37,103.2,136.4V480h-67.4C412.6,327.6,428.7,239.1,344.9,239.1L344.9,239.1z"/>
<path d="M23.9,159.6c-30.3,0-9.6,33.8-16,336.4c0,8.8,7.2,16,16,16h99.5c30.3,0,9.6-33.8,16-336.4
	C139.5,147.9,99.3,164.2,23.9,159.6z M107.5,480H39.9V191.6h67.5V480z"/>
<path d="M73.6,0c-97.6,0-97,147.8,0,147.8C170.6,147.8,171.4,0,73.6,0z M73.6,115.8c-54.8,0-55.3-83.8,0-83.8
	C129,32,128.3,115.8,73.6,115.8z"/>
</svg>
