<?xml version="1.0" encoding="utf-8"?>
<!-- Generator: Adobe Illustrator 25.1.0, SVG Export Plug-In . SVG Version: 6.00 Build 0)  -->
<svg version="1.1" id="Capa_1" xmlns="http://www.w3.org/2000/svg" xmlns:xlink="http://www.w3.org/1999/xlink" x="0px" y="0px"
	 viewBox="0 0 512 512" style="enable-background:new 0 0 512 512;" xml:space="preserve">
<path d="M257,252.3c-19.4,0-38.9-7.4-53.7-22.2c-29.6-29.6-29.6-77.8,0-107.4c14.3-14.3,33.4-22.2,53.7-22.2s39.4,7.9,53.7,22.2
	c29.6,29.6,29.6,77.8,0,107.4C295.9,244.9,276.4,252.3,257,252.3z M257,130.5c-11.8,0-23.5,4.5-32.5,13.4c-17.9,17.9-17.9,47,0,64.9
	c8.7,8.7,20.2,13.4,32.5,13.4s23.8-4.8,32.5-13.4c17.9-17.9,17.9-47,0-64.9C280.5,135,268.7,130.5,257,130.5z"/>
<path d="M257.1,512l-11.6-13.6C238.7,490.4,79,301.3,79,178C79,79.8,158.8,0,257,0s178,79.8,178,178c0,117.3-159.6,312-166.4,320.2
	L257.1,512z M257,30C175.4,30,109,96.4,109,178c0,45.8,27.3,112.2,79.1,191.9c26.8,41.3,53.9,76.4,68.7,94.9
	c14.9-19,42.2-55.2,69.2-97.3c51.6-80.6,78.9-146.1,78.9-189.4C404.9,96.4,338.5,30,257,30z"/>
</svg>
