<?xml version="1.0" encoding="utf-8"?>
<!-- Generator: Adobe Illustrator 25.1.0, SVG Export Plug-In . SVG Version: 6.00 Build 0)  -->
<svg version="1.1" id="Capa_1" xmlns="http://www.w3.org/2000/svg" xmlns:xlink="http://www.w3.org/1999/xlink" x="0px" y="0px"
	 viewBox="0 0 416.4 416.4" style="enable-background:new 0 0 416.4 416.4;" xml:space="preserve">
<g>
	<g>
		<path d="M328.1,12.2l-0.4-0.6C320.3,4.2,310.2,0,299.7,0H116.5C94.7,0.1,77,17.7,77,39.5v337.3c0,10.5,4.2,20.6,11.6,28
			c7.4,7.4,17.5,11.6,28,11.6h183.2c10.5,0,20.6-4.1,28-11.6c7.4-7.4,11.6-17.5,11.6-28V39.5C339.4,29.3,335.3,19.5,328.1,12.2z
			 M324.1,376.8c0,6.4-2.6,12.6-7.1,17.2c-4.5,4.6-10.7,7.1-17.2,7.1H116.5c-6.4,0-12.6-2.6-17.2-7.1c-4.6-4.5-7.1-10.7-7.2-17.2
			V39.5c0-13.4,10.9-24.3,24.3-24.3h183.4c6.4,0,12.6,2.6,17.2,7.2l0.4,0.3c4.4,4.5,6.8,10.6,6.8,16.8L324.1,376.8z"/>
	</g>
</g>
<g>
	<g>
		<circle cx="208.1" cy="378.8" r="10.7"/>
	</g>
</g>
<g>
	<g>
		<path d="M305.9,47.6L305.9,47.6c-6.3-6.3-14.8-9.8-23.6-9.8h-148c-8.8,0-17.3,3.5-23.5,9.8c-6.3,6.2-9.8,14.7-9.8,23.6v251.4
			c0,8.8,3.5,17.3,9.8,23.6c6.2,6.3,14.7,9.8,23.6,9.8h148c8.6,0,16.9-3.4,23.1-9.4l0.5-0.4c6.3-6.2,9.8-14.7,9.8-23.6V71.2
			C315.6,62.3,312.1,53.9,305.9,47.6z M295,335.4l-0.3,0.4c-3.4,3.2-7.9,5-12.5,5h-148c-4.8,0-9.4-1.9-12.8-5.3
			c-3.4-3.4-5.4-8-5.4-12.8V71.2c0-4.8,1.9-9.4,5.3-12.8c3.4-3.4,8-5.3,12.8-5.3h148c4.8,0,9.4,1.9,12.8,5.3c3.4,3.4,5.3,8,5.3,12.8
			l0.1,251.4C300.4,327.4,298.4,332,295,335.4z"/>
	</g>
</g>
</svg>
