<?xml version="1.0" encoding="utf-8"?>
<!-- Generator: Adobe Illustrator 25.1.0, SVG Export Plug-In . SVG Version: 6.00 Build 0)  -->
<svg version="1.1" id="Capa_1" xmlns="http://www.w3.org/2000/svg" xmlns:xlink="http://www.w3.org/1999/xlink" x="0px" y="0px"
	 viewBox="0 0 512 512" style="enable-background:new 0 0 512 512;" xml:space="preserve">
<g>
	<g>
		<path d="M467,76H45C20.1,76,0,96.3,0,121v270c0,24.9,20.3,45,45,45h422c24.7,0,45-20,45-45V121C512,96.3,491.9,76,467,76z
			 M460.7,106c-9.2,9.1-167.4,166.5-172.9,172c-8.5,8.5-19.8,13.2-31.8,13.2s-23.3-4.7-31.8-13.2C220.5,274.3,64,118.6,51.3,106
			H460.7z M30,384.9V127.1l129.6,129L30,384.9z M51.3,406l129.6-128.8l22.1,21.9c14.2,14.2,33,22,53,22s38.9-7.8,53-21.9l22.1-22
			L460.7,406H51.3z M482,384.9L352.4,256.1l129.6-129V384.9z"/>
	</g>
</g>
</svg>
