<svg width="111" height="104" viewBox="0 0 111 104" fill="none" xmlns="http://www.w3.org/2000/svg">
<path d="M1.5 101.5H94.5V103.5H1.5V101.5Z" fill="#565982" stroke="#565982"/>
<circle cx="74" cy="37" r="36.5" stroke="#FA1C40"/>
<path d="M100 11.2942C96.07 15.7961 85.9668 19 74.1232 19C62.0233 19 51.7399 15.6559 48 11" stroke="#FA1C40"/>
<path d="M48 61.7058C51.93 57.2039 62.0332 54 73.8768 54C85.9767 54 96.2601 57.3441 100 62" stroke="#FA1C40"/>
<path d="M66.4117 72.5C57.4078 67.172 51 52.9752 51 36.9189C51 20.5149 57.6882 6.07025 67 1" stroke="#FA1C40"/>
<path d="M80.6619 73C90.7912 67.6348 98 53.3387 98 37.17C98 20.6514 90.4758 6.10571 80 1" stroke="#FA1C40"/>
<line x1="37" y1="36.5" x2="111" y2="36.5" stroke="#FA1C40"/>
<line x1="37" y1="36.5" x2="111" y2="36.5" stroke="#FA1C40"/>
<line x1="73.5" y1="74" x2="73.5" y2="2.18557e-08" stroke="#FA1C40"/>
<line x1="73.5" y1="74" x2="73.5" y2="2.18557e-08" stroke="#FA1C40"/>
<path d="M84 78.5H84.5V78V43C84.5 39.9624 82.0376 37.5 79 37.5H17C13.9624 37.5 11.5 39.9624 11.5 43V78V78.5H12H84Z" fill="#070816" stroke="#565982"/>
<path d="M14.5 43C14.5 41.6193 15.6193 40.5 17 40.5H79C80.3807 40.5 81.5 41.6193 81.5 43V75H14.5V43Z" stroke="#565982"/>
<path d="M2 100.5H1.2235L1.54482 99.7931L11.5448 77.7931L11.678 77.5H12H84H84.322L84.4552 77.7931L94.4552 99.7931L94.7765 100.5H94H2Z" fill="#070816" stroke="#565982"/>
<path d="M29 100H67L63.6721 92.7487C63.183 91.6831 62.118 91 60.9455 91H35.0545C33.882 91 32.817 91.6831 32.3279 92.7487L29 100Z" fill="#565982"/>
<path d="M1.5 101.5H94.5V103.5H1.5V101.5Z" fill="#565982" stroke="#565982"/>
<circle cx="74" cy="37" r="36.5" stroke="#FA1C40"/>
<path d="M100 11.2942C96.07 15.7961 85.9668 19 74.1232 19C62.0233 19 51.7399 15.6559 48 11" stroke="#FA1C40"/>
<path d="M48 61.7058C51.93 57.2039 62.0332 54 73.8768 54C85.9767 54 96.2601 57.3441 100 62" stroke="#FA1C40"/>
<path d="M66.4117 72.5C57.4078 67.172 51 52.9752 51 36.9189C51 20.5149 57.6882 6.07025 67 1" stroke="#FA1C40"/>
<path d="M80.6619 73C90.7912 67.6348 98 53.3387 98 37.17C98 20.6514 90.4758 6.10571 80 1" stroke="#FA1C40"/>
<line x1="37" y1="36.5" x2="111" y2="36.5" stroke="#FA1C40"/>
<line x1="37" y1="36.5" x2="111" y2="36.5" stroke="#FA1C40"/>
<line x1="73.5" y1="74" x2="73.5" y2="2.18557e-08" stroke="#FA1C40"/>
<line x1="73.5" y1="74" x2="73.5" y2="2.18557e-08" stroke="#FA1C40"/>
<path d="M84 78.5H84.5V78V43C84.5 39.9624 82.0376 37.5 79 37.5H17C13.9624 37.5 11.5 39.9624 11.5 43V78V78.5H12H84Z" fill="#070816" stroke="#565982"/>
<path d="M14.5 43C14.5 41.6193 15.6193 40.5 17 40.5H79C80.3807 40.5 81.5 41.6193 81.5 43V75H14.5V43Z" stroke="#565982"/>
<path d="M2 100.5H1.2235L1.54482 99.7931L11.5448 77.7931L11.678 77.5H12H84H84.322L84.4552 77.7931L94.4552 99.7931L94.7765 100.5H94H2Z" fill="#070816" stroke="#565982"/>
<path d="M29 100H67L63.6721 92.7487C63.183 91.6831 62.118 91 60.9455 91H35.0545C33.882 91 32.817 91.6831 32.3279 92.7487L29 100Z" fill="#565982"/>
</svg>
