<svg width="125" height="85" viewBox="0 0 125 85" fill="none" xmlns="http://www.w3.org/2000/svg">
<path fill-rule="evenodd" clip-rule="evenodd" d="M106.907 17.8878H21.9633V71.2249H106.907V17.8878ZM19.1934 15.0806V74.0322H109.677V15.0806H19.1934Z" fill="#565982"/>
<path fill-rule="evenodd" clip-rule="evenodd" d="M108.307 18.0885L63.6196 37.0162L20.5647 18.0834L21.3317 16.4568L63.6337 35.0585L107.563 16.4517L108.307 18.0885Z" fill="#565982"/>
<path d="M78.1449 9.59715C78.1449 15.1322 79.5808 20.5698 82.3082 25.3633C85.0356 30.1568 88.9585 34.1373 93.6826 36.9049C98.4066 39.6724 103.765 41.1294 109.22 41.1294C114.675 41.1294 120.034 39.6724 124.758 36.9049L109.22 9.59714L78.1449 9.59715Z" fill="url(#paint0_radial)"/>
<path d="M109.677 30.1613C111.623 30.1613 113.201 28.4735 113.201 26.3911H106.154C106.154 28.4735 107.732 30.1613 109.677 30.1613ZM121.542 21.3421C120.478 20.1191 118.486 18.2794 118.486 12.253C118.486 7.67581 115.485 4.01169 111.439 3.11274V1.88508C111.439 0.844162 110.65 0 109.677 0C108.705 0 107.916 0.844162 107.916 1.88508V3.11274C103.869 4.01169 100.868 7.67581 100.868 12.253C100.868 18.2794 98.8771 20.1191 97.8129 21.3421C97.4824 21.722 97.3359 22.1762 97.3387 22.621C97.3447 23.5871 98.0536 24.506 99.1068 24.506H120.248C121.301 24.506 122.01 23.5871 122.016 22.621C122.019 22.1762 121.872 21.7214 121.542 21.3421Z" fill="#FA1C40"/>
<path d="M55.6375 60.3225C54.7062 60.3225 53.9808 60.1233 53.461 59.7249C52.9521 59.3266 52.5948 58.7899 52.389 58.115C52.1941 57.44 52.0967 56.6876 52.0967 55.8577V51.1108C52.0967 50.2034 52.1941 49.4123 52.389 48.7373C52.5948 48.0623 52.9521 47.5423 53.461 47.1771C53.9808 46.8009 54.7062 46.6128 55.6375 46.6128C56.4604 46.6128 57.1101 46.7677 57.5865 47.0775C58.0738 47.3874 58.4203 47.83 58.626 48.4053C58.8426 48.9807 58.9509 49.6723 58.9509 50.48V51.5423H57.2129V50.5962C57.2129 50.0983 57.1859 49.6612 57.1317 49.285C57.0884 48.8977 56.9585 48.599 56.7419 48.3887C56.5254 48.1785 56.1626 48.0734 55.6537 48.0734C55.134 48.0734 54.755 48.1896 54.5168 48.4219C54.2785 48.6432 54.1215 48.9641 54.0457 49.3846C53.9808 49.794 53.9483 50.2753 53.9483 50.8286V56.1565C53.9483 56.8314 54.0024 57.3681 54.1107 57.7664C54.219 58.1537 54.3976 58.4303 54.6467 58.5963C54.8957 58.7623 55.2314 58.8453 55.6537 58.8453C56.1518 58.8453 56.5091 58.7346 56.7257 58.5133C56.9422 58.281 57.0776 57.9656 57.1317 57.5673C57.1859 57.1689 57.2129 56.7042 57.2129 56.173V55.1772H58.9509V56.173C58.9509 56.9919 58.8534 57.7166 58.6585 58.3473C58.4636 58.967 58.1279 59.4539 57.6515 59.8079C57.175 60.151 56.5037 60.3225 55.6375 60.3225Z" fill="#D0CCCC"/>
<path d="M62.9894 60.1731L60.0496 46.729H61.7713L63.8503 56.6378L65.8318 46.729H67.5047L64.5974 60.1731H62.9894Z" fill="#D0CCCC"/>
<path d="M68.8996 60.1731V46.729H73.9997V48.1232H70.735V52.5714H73.3825V53.8992H70.735V58.8287H74.0322V60.1731H68.8996Z" fill="#D0CCCC"/>
<path fill-rule="evenodd" clip-rule="evenodd" d="M0 5.48389H47.9838V6.85485H0V5.48389Z" fill="#FA1C40"/>
<path fill-rule="evenodd" clip-rule="evenodd" d="M16.4514 0L39.7579 2.03751e-06L39.7579 1.37097L16.4514 1.37097L16.4514 0Z" fill="#FA1C40"/>
<path fill-rule="evenodd" clip-rule="evenodd" d="M94.5967 79.5166L113.79 79.5166L113.79 80.8876L94.5967 80.8875L94.5967 79.5166Z" fill="#FA1C40"/>
<path fill-rule="evenodd" clip-rule="evenodd" d="M74.0322 83.6294L102.823 83.6294L102.823 85.0004L74.0322 85.0003L74.0322 83.6294Z" fill="#FA1C40"/>
<defs>
<radialGradient id="paint0_radial" cx="0" cy="0" r="1" gradientUnits="userSpaceOnUse" gradientTransform="translate(109.22 3.42779) rotate(105.43) scale(29.1989 20.5395)">
<stop offset="0.458333" stop-color="#090A19"/>
<stop offset="1" stop-color="#080918" stop-opacity="0"/>
</radialGradient>
</defs>
</svg>
