<svg width="122" height="142" viewBox="0 0 122 142" fill="none" xmlns="http://www.w3.org/2000/svg">
<path d="M34.5271 65.9336L64.5271 48.4336L94.5271 65.9336L64.5271 83.4336L34.5271 65.9336Z" stroke="#FA1C40" stroke-width="1.6563" stroke-miterlimit="10"/>
<path d="M64.5271 83.7669V118.434L94.5271 101.1V66.4336" stroke="#FA1C40" stroke-width="1.6563" stroke-miterlimit="10"/>
<path d="M34.5271 66.4336V101.099L64.5271 118.434" stroke="#FA1C40" stroke-width="1.6563" stroke-miterlimit="10"/>
<path d="M68.5271 108.434L71.8604 99.1171L74.7771 103.168L78.9438 84.5349L83.9438 95.4716L88.5271 76.4336" stroke="#565982"/>
<path d="M48.5271 89.1552C48.5271 90.7263 47.184 92 45.5271 92C43.8702 92 42.5271 90.7263 42.5271 89.1552C42.5271 87.584 45.5271 81 45.5271 81C45.5271 81 48.5271 87.584 48.5271 89.1552Z" fill="#565982"/>
<path d="M55.5271 100.414C55.5271 101.842 54.184 103 52.5271 103C50.8702 103 49.5271 101.842 49.5271 100.414C49.5271 98.9855 52.5271 93 52.5271 93C52.5271 93 55.5271 98.9855 55.5271 100.414Z" fill="#565982"/>
<rect x="20.4619" y="12.4773" width="31.7364" height="9.0028" transform="rotate(47.7125 20.4619 12.4773)" stroke="#565982"/>
<rect x="40.5315" y="37.2459" width="5.36542" height="5.36542" transform="rotate(47.7125 40.5315 37.2459)" stroke="#565982"/>
<rect x="12.6296" y="1.16286" width="1.72804" height="12.6402" transform="rotate(47.7125 12.6296 1.16286)" stroke="#565982"/>
<rect x="11.1623" y="4.95583" width="9.91214" height="5.36542" transform="rotate(47.7125 11.1623 4.95583)" stroke="#565982"/>
<rect x="21.2563" y="9.29616" width="1.72804" height="14.4589" transform="rotate(47.7125 21.2563 9.29616)" stroke="#565982"/>
<path d="M42.5269 43.3593L64.0271 66.9336" stroke="#565982"/>
<path d="M29.1464 22.7311C29.781 22.7612 30.3752 22.9208 30.9321 23.1479C31.4027 22.8138 31.777 22.347 32.0051 21.7903C31.1632 21.3732 30.2247 21.1176 29.2285 21.0704C28.2357 21.0234 27.2774 21.1856 26.3998 21.5213C26.5743 22.0971 26.9028 22.5971 27.3397 22.9743C27.912 22.8041 28.5152 22.7012 29.1464 22.7311ZM24.3712 33.8107C24.7999 33.4226 25.1104 32.9321 25.2764 32.3863C24.1972 31.4215 23.5136 30.043 23.4462 28.5067C23.1608 28.3963 22.8669 28.3201 22.5531 28.3052C22.2938 28.2929 22.0328 28.3152 21.7803 28.3759C21.8175 30.5509 22.8087 32.5081 24.3712 33.8107ZM32.09 32.7021C32.2037 33.2612 32.4662 33.7824 32.8563 34.2092C34.5316 33.0601 35.7034 31.2053 35.9392 29.0432C35.6968 28.9625 35.4425 28.9159 35.1867 28.9038C34.8728 28.8889 34.5694 28.9403 34.2715 29.0231C34.0593 30.5426 33.2488 31.8434 32.09 32.7021ZM36.2976 25.8072C35.7142 25.4197 35.0863 25.1754 34.4435 25.0307C34.6772 24.4293 34.8442 23.7901 34.8766 23.1064C34.9437 21.6907 34.5141 20.2931 33.6614 19.166C33.581 19.0584 33.4422 19.0276 33.3231 19.0877C33.2074 19.148 33.1496 19.2871 33.1844 19.4168C33.3154 19.9006 33.3666 20.3356 33.3466 20.7568C33.2357 23.0979 31.3101 24.9134 29.0515 24.8064C26.793 24.6994 25.0476 22.7099 25.1585 20.3689C25.1783 19.9511 25.274 19.5196 25.4467 19.0502C25.4936 18.9244 25.4492 18.7804 25.3397 18.7095C25.2268 18.6384 25.0858 18.6559 24.9956 18.7555C24.0435 19.797 23.4803 21.1476 23.4132 22.5633C23.3808 23.247 23.4833 23.8989 23.6625 24.52C23.0123 24.6034 22.3607 24.787 21.7432 25.1177C20.5292 25.7696 19.5749 26.8595 19.0572 28.188C19.0068 28.3137 19.0514 28.4542 19.1605 28.5321C19.2699 28.6065 19.4143 28.5891 19.5043 28.493C19.8427 28.1353 20.1838 27.8642 20.5416 27.6735C22.552 26.5956 25.0266 27.4119 26.0598 29.4922C27.0931 31.5726 26.2978 34.1407 24.2874 35.2186C23.9294 35.4128 23.5198 35.5422 23.0441 35.6234C22.9165 35.6451 22.8189 35.7581 22.8125 35.8928C22.8094 36.0311 22.8927 36.1492 23.0212 36.1795C24.3629 36.513 25.7697 36.3374 26.9837 35.6855C27.6151 35.3486 28.1462 34.8927 28.5948 34.3741C28.9923 34.9328 29.4779 35.4369 30.0747 35.832C31.2216 36.5957 32.6056 36.9035 33.9728 36.6984C34.1036 36.6803 34.1977 36.5706 34.2076 36.4327C34.214 36.298 34.1309 36.1764 34.0025 36.1426C33.5331 36.02 33.1411 35.8492 32.8031 35.6221C30.9036 34.3589 30.3547 31.7271 31.58 29.7538C32.8053 27.7804 35.346 27.2018 37.2454 28.4649C37.5834 28.692 37.8975 28.9907 38.2006 29.3788C38.2811 29.4829 38.4233 29.5139 38.5391 29.4502C38.655 29.3865 38.7129 29.2473 38.6746 29.1175C38.2916 27.7462 37.4447 26.5676 36.2976 25.8072ZM28.806 29.9165C27.9019 29.8737 27.2035 29.0965 27.2469 28.1815C27.2902 27.2665 28.0589 26.5589 28.963 26.6018C29.8671 26.6446 30.5655 27.4217 30.5221 28.3367C30.4788 29.2517 29.7101 29.9593 28.806 29.9165Z" fill="#FA1C40"/>
<path d="M65.6597 63.6072C65.5322 65.234 64.3011 68.4111 60.3968 68.1051" stroke="#565982" stroke-width="0.4"/>
<path d="M23.548 44.2211C13.5599 54.4039 7.43544 68.3816 7.5283 83.7719C7.7149 114.699 32.9378 139.62 63.8652 139.433C94.7925 139.246 119.713 114.024 119.526 83.0962C119.34 52.1688 94.1168 27.2485 63.1894 27.4351C57.0363 27.4722 51.121 28.5003 45.5939 30.3672" stroke="#565982" stroke-width="3"/>
</svg>
