<svg width="108" height="154" viewBox="0 0 108 154" fill="none" xmlns="http://www.w3.org/2000/svg">
<path d="M82.3857 76V113.5C82.3857 118.137 79.6032 127.412 68.4734 127.412C57.3435 127.412 52.8172 127.412 48 127.412" stroke="#565982" stroke-width="2"/>
<path d="M3 113.5L25 101L47 113.5L25 126L3 113.5Z" stroke="#FA1C40" stroke-width="2" stroke-miterlimit="10"/>
<path d="M25 126.244V152L47 139.333V114" stroke="#FA1C40" stroke-width="2" stroke-miterlimit="10"/>
<path d="M3 114V139.333L25 152" stroke="#FA1C40" stroke-width="2" stroke-miterlimit="10"/>
<path d="M83.7086 21.2124C84.4046 18.9324 85.1646 16.7044 85.9886 14.5284H82.7966V13.7364H87.0326V14.2044C86.0486 16.6844 85.2566 19.0204 84.6566 21.2124H83.7086ZM89.7046 21.3444C89.5126 21.3444 89.3486 21.2764 89.2126 21.1404C89.0766 21.0044 89.0086 20.8444 89.0086 20.6604C89.0086 20.4764 89.0766 20.3164 89.2126 20.1804C89.3486 20.0444 89.5126 19.9764 89.7046 19.9764C89.8886 19.9764 90.0486 20.0444 90.1846 20.1804C90.3206 20.3164 90.3886 20.4764 90.3886 20.6604C90.3886 20.8444 90.3206 21.0044 90.1846 21.1404C90.0486 21.2764 89.8886 21.3444 89.7046 21.3444ZM94.9326 16.3524C95.3646 16.3524 95.7486 16.4564 96.0846 16.6644C96.4286 16.8644 96.6966 17.1564 96.8886 17.5404C97.0886 17.9164 97.1886 18.3564 97.1886 18.8604C97.1886 19.3644 97.0846 19.8044 96.8766 20.1804C96.6766 20.5564 96.3966 20.8444 96.0366 21.0444C95.6846 21.2444 95.2846 21.3444 94.8366 21.3444C94.3806 21.3444 93.9566 21.2444 93.5646 21.0444C93.1806 20.8444 92.8646 20.5604 92.6166 20.1924L93.2886 19.6884L93.3006 19.6764C93.3086 19.6764 93.3126 19.6804 93.3126 19.6884C93.5206 20.0084 93.7406 20.2444 93.9726 20.3964C94.2046 20.5404 94.5086 20.6124 94.8846 20.6124C95.1406 20.6124 95.3806 20.5404 95.6046 20.3964C95.8286 20.2444 96.0046 20.0364 96.1326 19.7724C96.2686 19.5004 96.3366 19.1844 96.3366 18.8244C96.3366 18.2804 96.1886 17.8484 95.8926 17.5284C95.6046 17.2084 95.2406 17.0484 94.8006 17.0484C94.5446 17.0484 94.2926 17.1124 94.0446 17.2404C93.7966 17.3604 93.5806 17.5324 93.3966 17.7564L92.8686 17.5404L93.1206 13.7364H96.9126V14.4924H93.8286L93.7086 16.6404C94.1006 16.4484 94.5086 16.3524 94.9326 16.3524ZM93.3006 19.6764C93.2606 19.6124 93.2686 19.6084 93.3246 19.6644L93.3006 19.6764ZM93.4326 19.6764C93.4326 19.7244 93.3966 19.7204 93.3246 19.6644L93.3846 19.6164L93.4326 19.6764Z" fill="white"/>
<path d="M82.7246 41.2675L83.6966 40.2835C84.3446 39.6355 84.8286 39.1275 85.1486 38.7595C85.4766 38.3915 85.7366 38.0275 85.9286 37.6675C86.1206 37.2995 86.2166 36.9195 86.2166 36.5275C86.2166 36.0395 86.1006 35.6875 85.8686 35.4715C85.6366 35.2555 85.3286 35.1475 84.9446 35.1475C84.6006 35.1475 84.2806 35.2235 83.9846 35.3755C83.6966 35.5275 83.5046 35.6955 83.4086 35.8795C83.3606 35.9675 83.3126 36.0595 83.2646 36.1555C83.2166 36.2435 83.1926 36.2955 83.1926 36.3115C83.1926 36.3195 83.1966 36.3235 83.2046 36.3235C83.2126 36.3235 83.2286 36.3195 83.2526 36.3115C83.2766 36.2955 83.2926 36.3035 83.3006 36.3355L83.2646 36.4075L83.1566 36.3475L82.5446 35.8675C82.7846 35.4035 83.1126 35.0475 83.5286 34.7995C83.9446 34.5435 84.4126 34.4155 84.9326 34.4155C85.5726 34.4155 86.0886 34.6075 86.4806 34.9915C86.8806 35.3755 87.0806 35.8955 87.0806 36.5515C87.0806 36.9835 86.9766 37.4035 86.7686 37.8115C86.5606 38.2195 86.2926 38.6075 85.9646 38.9755C85.6446 39.3435 85.1966 39.8115 84.6206 40.3795L83.8046 41.2075H86.5886C86.7166 41.2075 86.8086 41.1995 86.8646 41.1835C86.9286 41.1675 86.9846 41.1355 87.0326 41.0875H87.1166V41.9395H82.7246V41.2675ZM89.7046 42.0715C89.5126 42.0715 89.3486 42.0035 89.2126 41.8675C89.0766 41.7315 89.0086 41.5715 89.0086 41.3875C89.0086 41.2035 89.0766 41.0435 89.2126 40.9075C89.3486 40.7715 89.5126 40.7035 89.7046 40.7035C89.8886 40.7035 90.0486 40.7715 90.1846 40.9075C90.3206 41.0435 90.3886 41.2035 90.3886 41.3875C90.3886 41.5715 90.3206 41.7315 90.1846 41.8675C90.0486 42.0035 89.8886 42.0715 89.7046 42.0715ZM94.9326 37.0795C95.3646 37.0795 95.7486 37.1835 96.0846 37.3915C96.4286 37.5915 96.6966 37.8835 96.8886 38.2675C97.0886 38.6435 97.1886 39.0835 97.1886 39.5875C97.1886 40.0915 97.0846 40.5315 96.8766 40.9075C96.6766 41.2835 96.3966 41.5715 96.0366 41.7715C95.6846 41.9715 95.2846 42.0715 94.8366 42.0715C94.3806 42.0715 93.9566 41.9715 93.5646 41.7715C93.1806 41.5715 92.8646 41.2875 92.6166 40.9195L93.2886 40.4155L93.3006 40.4035C93.3086 40.4035 93.3126 40.4075 93.3126 40.4155C93.5206 40.7355 93.7406 40.9715 93.9726 41.1235C94.2046 41.2675 94.5086 41.3395 94.8846 41.3395C95.1406 41.3395 95.3806 41.2675 95.6046 41.1235C95.8286 40.9715 96.0046 40.7635 96.1326 40.4995C96.2686 40.2275 96.3366 39.9115 96.3366 39.5515C96.3366 39.0075 96.1886 38.5755 95.8926 38.2555C95.6046 37.9355 95.2406 37.7755 94.8006 37.7755C94.5446 37.7755 94.2926 37.8395 94.0446 37.9675C93.7966 38.0875 93.5806 38.2595 93.3966 38.4835L92.8686 38.2675L93.1206 34.4635H96.9126V35.2195H93.8286L93.7086 37.3675C94.1006 37.1755 94.5086 37.0795 94.9326 37.0795ZM93.3006 40.4035C93.2606 40.3395 93.2686 40.3355 93.3246 40.3915L93.3006 40.4035ZM93.4326 40.4035C93.4326 40.4515 93.3966 40.4475 93.3246 40.3915L93.3846 40.3435L93.4326 40.4035Z" fill="white"/>
<path d="M85.2961 59.14C85.7281 59.14 86.1121 59.244 86.4481 59.452C86.7921 59.652 87.0601 59.944 87.2521 60.328C87.4521 60.704 87.5521 61.144 87.5521 61.648C87.5521 62.152 87.4481 62.592 87.2401 62.968C87.0401 63.344 86.7601 63.632 86.4001 63.832C86.0481 64.032 85.6481 64.132 85.2001 64.132C84.7441 64.132 84.3201 64.032 83.9281 63.832C83.5441 63.632 83.2281 63.348 82.9801 62.98L83.6521 62.476L83.6641 62.464C83.6721 62.464 83.6761 62.468 83.6761 62.476C83.8841 62.796 84.1041 63.032 84.3361 63.184C84.5681 63.328 84.8721 63.4 85.2481 63.4C85.5041 63.4 85.7441 63.328 85.9681 63.184C86.1921 63.032 86.3681 62.824 86.4961 62.56C86.6321 62.288 86.7001 61.972 86.7001 61.612C86.7001 61.068 86.5521 60.636 86.2561 60.316C85.9681 59.996 85.6041 59.836 85.1641 59.836C84.9081 59.836 84.6561 59.9 84.4081 60.028C84.1601 60.148 83.9441 60.32 83.7601 60.544L83.2321 60.328L83.4841 56.524H87.2761V57.28H84.1921L84.0721 59.428C84.4641 59.236 84.8721 59.14 85.2961 59.14ZM83.6641 62.464C83.6241 62.4 83.6321 62.396 83.6881 62.452L83.6641 62.464ZM83.7961 62.464C83.7961 62.512 83.7601 62.508 83.6881 62.452L83.7481 62.404L83.7961 62.464ZM90.0681 64.132C89.8761 64.132 89.7121 64.064 89.5761 63.928C89.4401 63.792 89.3721 63.632 89.3721 63.448C89.3721 63.264 89.4401 63.104 89.5761 62.968C89.7121 62.832 89.8761 62.764 90.0681 62.764C90.2521 62.764 90.4121 62.832 90.5481 62.968C90.6841 63.104 90.7521 63.264 90.7521 63.448C90.7521 63.632 90.6841 63.792 90.5481 63.928C90.4121 64.064 90.2521 64.132 90.0681 64.132ZM95.2961 59.14C95.7281 59.14 96.1121 59.244 96.4481 59.452C96.7921 59.652 97.0601 59.944 97.2521 60.328C97.4521 60.704 97.5521 61.144 97.5521 61.648C97.5521 62.152 97.4481 62.592 97.2401 62.968C97.0401 63.344 96.7601 63.632 96.4001 63.832C96.0481 64.032 95.6481 64.132 95.2001 64.132C94.7441 64.132 94.3201 64.032 93.9281 63.832C93.5441 63.632 93.2281 63.348 92.9801 62.98L93.6521 62.476L93.6641 62.464C93.6721 62.464 93.6761 62.468 93.6761 62.476C93.8841 62.796 94.1041 63.032 94.3361 63.184C94.5681 63.328 94.8721 63.4 95.2481 63.4C95.5041 63.4 95.7441 63.328 95.9681 63.184C96.1921 63.032 96.3681 62.824 96.4961 62.56C96.6321 62.288 96.7001 61.972 96.7001 61.612C96.7001 61.068 96.5521 60.636 96.2561 60.316C95.9681 59.996 95.6041 59.836 95.1641 59.836C94.9081 59.836 94.6561 59.9 94.4081 60.028C94.1601 60.148 93.9441 60.32 93.7601 60.544L93.2321 60.328L93.4841 56.524H97.2761V57.28H94.1921L94.0721 59.428C94.4641 59.236 94.8721 59.14 95.2961 59.14ZM93.6641 62.464C93.6241 62.4 93.6321 62.396 93.6881 62.452L93.6641 62.464ZM93.7961 62.464C93.7961 62.512 93.7601 62.508 93.6881 62.452L93.7481 62.404L93.7961 62.464Z" fill="white"/>
<rect x="54" y="1" width="52.1212" height="74" stroke="#565982" stroke-width="2"/>
<path d="M61.0605 42.0302L65.0909 46.0605L73.1515 31.0908" stroke="#FA1C40"/>
<path d="M70.8484 12.6665L61.0605 22.4544" stroke="#FA1C40"/>
<path d="M61.0605 13.2427L70.2727 22.4548" stroke="#FA1C40"/>
<path d="M70.8484 56.4243L61.0605 66.2122" stroke="#FA1C40"/>
<path d="M61.0605 57L70.2727 66.2121" stroke="#FA1C40"/>
</svg>
