<svg xmlns="http://www.w3.org/2000/svg" viewBox="0 0 56.73 53.5"><defs><style>.cls-1{fill:#fff;}</style></defs><g id="Capa_2" data-name="Capa 2"><g id="Capa_1-2" data-name="Capa 1"><path class="cls-1" d="M41.82,0a15,15,0,0,0-2.94.29l0,0-.13.08A14.93,14.93,0,0,0,26.91,14.91,13.93,13.93,0,0,0,27,16.63h.8a15.1,15.1,0,0,1-.11-1.52h4.58c0,.51,0,1,.06,1.52h.81c0-.5-.07-1-.08-1.52h8.15v1.52h.44l.35,0V15.11H51a20.22,20.22,0,0,1-1.47,7.51,17.5,17.5,0,0,0-3.77-1v.8a16.43,16.43,0,0,1,3.45.94,12.87,12.87,0,0,1-3.45,4.57v1.39A14.91,14.91,0,0,0,41.82,0ZM37,1.66a13.62,13.62,0,0,0-2.9,4.27,7,7,0,0,1-2-1.26A14.14,14.14,0,0,1,37,1.66ZM32.29,14.31H27.72a14.05,14.05,0,0,1,3.84-9.07,7.85,7.85,0,0,0,2.22,1.41A22.4,22.4,0,0,0,32.29,14.31Zm8.94,0H33.09A21.5,21.5,0,0,1,34.53,7a21.06,21.06,0,0,0,6.7,1.18Zm0-7a20.84,20.84,0,0,1-6.4-1.11A11.11,11.11,0,0,1,39,1.08,13.48,13.48,0,0,1,41.23.81ZM51.58,4.72A6.76,6.76,0,0,1,49.72,5.9a13.58,13.58,0,0,0-3.35-4.35A14.06,14.06,0,0,1,51.58,4.72ZM42,.8A14,14,0,0,1,44.08,1,11.45,11.45,0,0,1,49,6.22,20.6,20.6,0,0,1,42,7.35Zm0,13.51V8.15A21.48,21.48,0,0,0,49.3,6.94,19.94,19.94,0,0,1,51,14.31Zm8-7.69a7.82,7.82,0,0,0,2.09-1.33,14,14,0,0,1,3.78,9H51.75A20.63,20.63,0,0,0,50.05,6.62ZM46.62,28.19a14.07,14.07,0,0,0,3.28-4.54A5.85,5.85,0,0,1,51.72,25,14.17,14.17,0,0,1,46.62,28.19Zm5.66-3.8a7,7,0,0,0-2.06-1.45,20.89,20.89,0,0,0,1.54-7.83h4.17A14.07,14.07,0,0,1,52.28,24.39Z"/><path class="cls-1" d="M0,52h50.1V53.5H0Z"/><path class="cls-1" d="M41.67,17.75H8.46a2.94,2.94,0,0,0-2.94,2.94v19H44.61v-19A2.94,2.94,0,0,0,41.67,17.75ZM43,37.83H7.12V20.69a1.34,1.34,0,0,1,1.34-1.34H41.67A1.33,1.33,0,0,1,43,20.69Z"/><path class="cls-1" d="M49.93,51.11,44.57,39.33l-.07-.16H5.6l-.07.16L.17,51.11,0,51.49H50.1Zm-15.72-.7L32.8,47.48a1.5,1.5,0,0,0-1.35-.83H18.65a1.5,1.5,0,0,0-1.35.83l-1.41,2.93H1.66L6.29,40.24H43.81l4.63,10.17Zm-17.71,0,1.28-2.66a1,1,0,0,1,.87-.52h12.8a1,1,0,0,1,.87.52l1.28,2.66Z"/></g></g></svg>