<svg xmlns="http://www.w3.org/2000/svg" viewBox="0 0 38.84 81.47"><defs><style>.cls-1{fill:#fff;}</style></defs><g id="Capa_2" data-name="Capa 2"><g id="Capa_1-2" data-name="Capa 1"><path class="cls-1" d="M37.36,9.27V0H35.09V9.27a2.63,2.63,0,0,0-1.49,2.36,2.56,2.56,0,0,0,.19.95l-5.67,5.66a2.52,2.52,0,0,0-.73-.1,2.62,2.62,0,0,0-1.23,4.93v8.19l-.38.16-9.33-9.33a2.5,2.5,0,0,0,0-.4A2.6,2.6,0,0,0,15,19.35V7.51H12.76V19.32a2.6,2.6,0,0,0-1.52,2.37,2.33,2.33,0,0,0,.06.53L0,33.5l1.6,1.61L12.68,24a2.61,2.61,0,0,0,1.18.29A2.73,2.73,0,0,0,15.13,24h0l9.25,9.25a2.33,2.33,0,0,0-.06.53,2.67,2.67,0,0,0,.27,1.16L19.23,40.3a2.79,2.79,0,0,0-.87-.15A2.62,2.62,0,0,0,17,45V55.59L7,61.25a1.15,1.15,0,0,0-.57,1,.59.59,0,0,0,0,.14s0,.06,0,.1v11.9a1.15,1.15,0,0,0,.57,1l10.34,5.95.11.05.16.06a1,1,0,0,0,.29,0h0a1,1,0,0,0,.24,0h0a.29.29,0,0,0,.1,0l.18-.08,10.34-5.95a1.15,1.15,0,0,0,.57-1V62.48s0-.07,0-.1a.68.68,0,0,0,0-.14,1.15,1.15,0,0,0-.57-1l-9.56-5.43V45.23A2.65,2.65,0,0,0,21,42.76a2.72,2.72,0,0,0-.15-.86l5.58-5.57h0a3.07,3.07,0,0,0,.53.05,2.62,2.62,0,0,0,2.62-2.61,2.56,2.56,0,0,0-1.14-2.15V23.16A2.61,2.61,0,0,0,30,20.75a2.53,2.53,0,0,0-.19-1l5.62-5.62h0a2.9,2.9,0,0,0,.79.12,2.63,2.63,0,0,0,1.13-5ZM14.26,23.11a1.09,1.09,0,0,1-.4.07,1.36,1.36,0,0,1-.29,0,1.49,1.49,0,0,1-1.2-1.46,1.42,1.42,0,0,1,.23-.78,1.77,1.77,0,0,1,.16-.22,1.52,1.52,0,0,1,1.1-.48,1.49,1.49,0,0,1,1.49,1.48A1.47,1.47,0,0,1,14.26,23.11Zm2.53,55.26L8.72,73.73V64.19l8.07,4.59Zm10.34-4.64-8.07,4.64V68.78l8.07-4.59ZM26,62.24l-8,4.57-8-4.57,7.8-4.43.25-.14.25.14ZM19.83,42.9a1.44,1.44,0,0,1-.56,1,1.4,1.4,0,0,1-.91.32A1.48,1.48,0,0,1,17,43.34a1.81,1.81,0,0,1-.11-.58,1.46,1.46,0,0,1,1.35-1.46h.13a1.48,1.48,0,0,1,1.48,1.47A.66.66,0,0,1,19.83,42.9Zm8.61-9.13a.31.31,0,0,1,0,.1,1.43,1.43,0,0,1-.17.61,1.61,1.61,0,0,1-.58.58,1.53,1.53,0,0,1-.73.19,1.48,1.48,0,1,1,1.48-1.58A.34.34,0,0,1,28.44,33.77Zm.43-13a1.49,1.49,0,0,1-.44,1.06,1.43,1.43,0,0,1-1,.43,1.48,1.48,0,0,1-1.48-1.49A1.45,1.45,0,0,1,27,19.33a1.08,1.08,0,0,1,.36,0,1.47,1.47,0,0,1,1.48,1.43Zm7.62-7.66a1.09,1.09,0,0,1-.26,0,1.49,1.49,0,0,1-1.49-1.49h0a1.49,1.49,0,0,1,1.49-1.47,1.49,1.49,0,0,1,1.47,1.48A1.47,1.47,0,0,1,36.49,13.09Z"/><polygon class="cls-1" points="18.18 57.81 17.68 57.81 17.93 57.67 18.18 57.81"/></g></g></svg>