<svg xmlns="http://www.w3.org/2000/svg" viewBox="0 0 65.42 45.97"><defs><style>.cls-1,.cls-2{fill:#fff;}.cls-2{fill-rule:evenodd;}</style></defs><g id="Capa_2" data-name="Capa 2"><g id="Capa_1-2" data-name="Capa 1"><path class="cls-1" d="M29.88,32.56a1.91,1.91,0,0,1-1.19-.33,1.68,1.68,0,0,1-.58-.87A4.31,4.31,0,0,1,28,30.13V27.55a4.55,4.55,0,0,1,.16-1.29,1.59,1.59,0,0,1,.58-.85,2.05,2.05,0,0,1,1.19-.3,1.93,1.93,0,0,1,1.06.25,1.4,1.4,0,0,1,.56.72,3.15,3.15,0,0,1,.18,1.13v.58h-.95v-.52a5,5,0,0,0,0-.71.82.82,0,0,0-.21-.49.87.87,0,0,0-.59-.17.84.84,0,0,0-.62.19.89.89,0,0,0-.26.52,6.06,6.06,0,0,0-.05.79v2.89a3.44,3.44,0,0,0,.09.88.74.74,0,0,0,.29.45,1,1,0,0,0,.55.14.79.79,0,0,0,.58-.18.92.92,0,0,0,.22-.52,5.62,5.62,0,0,0,0-.76v-.54h.95v.54a3.94,3.94,0,0,1-.16,1.19,1.56,1.56,0,0,1-.55.79A1.81,1.81,0,0,1,29.88,32.56Z"/><path class="cls-1" d="M33.87,32.48l-1.59-7.31h.93l1.13,5.39,1.08-5.39h.91l-1.58,7.31Z"/><path class="cls-1" d="M37.09,32.48V25.17h2.77v.76H38.08v2.42h1.44v.72H38.08v2.68h1.8v.73Z"/><path class="cls-2" d="M48.88,43H59.31v.75H48.88Z"/><path class="cls-2" d="M37.7,45.23H53.35V46H37.7Z"/><path class="cls-2" d="M21.46,5.06H11V4.31H21.46Z"/><path class="cls-2" d="M15.65,2.82H0V2.08H15.65Z"/><path class="cls-1" d="M65.15,11.82c-.58-.68-1.69-1.69-1.69-5a5.08,5.08,0,0,0-3.9-5.07V1a1,1,0,1,0-2,0v.68a5.07,5.07,0,0,0-3.9,5.07A10.37,10.37,0,0,1,53.65,8H10.06V40H59.25V16.58a2.08,2.08,0,0,0,1.28-2h-3.9a2.1,2.1,0,0,0,1.11,1.88v22H11.57V10.67l22.65,10,17.59-8.44a1,1,0,0,0-.06.34,1,1,0,0,0,1,1H64.44a1.06,1.06,0,0,0,.71-1.75Zm-30.93,7L13,9.49H53.38Zm18.65-6.34.07-.07c.69-.79,1.85-2.09,1.85-5.63a4.12,4.12,0,0,1,1.67-3.38,3.52,3.52,0,0,1,2.09-.62h.06a3.55,3.55,0,0,1,2.1.62,4.15,4.15,0,0,1,1.67,3.38c0,3.54,1.15,4.84,1.84,5.63l.06.07Z"/></g></g></svg>