<svg xmlns="http://www.w3.org/2000/svg" viewBox="0 0 55.04 55.04"><defs><style>.cls-1{fill:#fff;}</style></defs><g id="Capa_2" data-name="Capa 2"><g id="Capa_1-2" data-name="Capa 1"><path class="cls-1" d="M27.52,13.39a13.89,13.89,0,0,0-4.88.87L23.33,16a12.15,12.15,0,0,1,4.19-.74A12.28,12.28,0,1,1,15.26,28.07H13.41A14.13,14.13,0,1,0,27.52,13.39Z"/><path class="cls-1" d="M27.52,19.68A7.79,7.79,0,0,0,25,20.1l.69,1.73a5.57,5.57,0,0,1,1.83-.3,6,6,0,1,1-6,6.54H19.7a7.84,7.84,0,1,0,7.82-8.39Z"/><path class="cls-1" d="M27.52,7.1a20.39,20.39,0,0,0-7.23,1.32L21,10.15A18.25,18.25,0,0,1,27.52,9,18.58,18.58,0,1,1,9,28.07H7.11a20.42,20.42,0,1,0,20.41-21Z"/><path class="cls-1" d="M27.52,55A27.52,27.52,0,1,1,55,27.52,27.55,27.55,0,0,1,27.52,55Zm0-53.19A25.67,25.67,0,1,0,53.19,27.52,25.7,25.7,0,0,0,27.52,1.85Z"/><polygon class="cls-1" points="28.15 27.89 27.29 28.25 18.04 5.33 18.9 4.99 28.15 27.89"/><path class="cls-1" d="M15.4,20.14a.68.68,0,0,1,0,.15h0A1.09,1.09,0,0,1,15,21a1.08,1.08,0,0,1-.84.31,1.26,1.26,0,1,1,1.27-1.2Z"/><path class="cls-1" d="M17,5.8C7.91,10-.39,24.29,6.08,38.9L26.32,28.47Zm-2.8,8.83h.29a5.2,5.2,0,0,1,2,.55,2.27,2.27,0,0,1-.79,1,4.12,4.12,0,0,0-1.32-.32,4.2,4.2,0,0,0-1.33.19L13,16a2.57,2.57,0,0,1-.62-1A5.2,5.2,0,0,1,14.16,14.63ZM9,20.17a2,2,0,0,1,1.23.1c0,.17,0,.33,0,.49a4.22,4.22,0,0,0,1.31,2.45,2.3,2.3,0,0,1-.67,1.08,5.46,5.46,0,0,1-1.28-1.61A5.55,5.55,0,0,1,9,20.17ZM21.32,21a.2.2,0,0,1-.25-.06,3.06,3.06,0,0,0-.71-.69,2.85,2.85,0,0,0-2.42-.39,3,3,0,0,0-1.76,1.37,3.35,3.35,0,0,0-.36,2.61,3.1,3.1,0,0,0,1.26,1.83,2.63,2.63,0,0,0,.88.4.21.21,0,0,1,.16.21.22.22,0,0,1-.17.21A4,4,0,0,1,15.34,26l-.27-.18a4.42,4.42,0,0,1-1.1-1.1,2.72,2.72,0,0,1-.37.39,4.36,4.36,0,0,1-.81.6,4,4,0,0,1-2.93.38.23.23,0,0,1-.15-.22.22.22,0,0,1,.17-.21,3,3,0,0,0,.92-.3A3.34,3.34,0,0,0,12.1,21a3,3,0,0,0-1.38-1.41,2.77,2.77,0,0,0-1.92-.24,2.8,2.8,0,0,0-.76.28,2.88,2.88,0,0,0-.77.62.18.18,0,0,1-.25,0A.21.21,0,0,1,6.94,20a4.45,4.45,0,0,1,2-2.32,3.4,3.4,0,0,1,.9-.34,2.33,2.33,0,0,1,.51-.11c0-.19-.09-.38-.12-.56a4.09,4.09,0,0,1-.05-.93,4.6,4.6,0,0,1,1.17-2.88.19.19,0,0,1,.25,0,.23.23,0,0,1,.08.26,2.94,2.94,0,0,0-.21,1,3.29,3.29,0,0,0,.05.77,3.21,3.21,0,0,0,1,1.78,2.91,2.91,0,0,0,1.86.81,3.12,3.12,0,0,0,3.16-3.07,3.35,3.35,0,0,0-.12-1,.22.22,0,0,1,.1-.25.19.19,0,0,1,.25.06,4.65,4.65,0,0,1,.9,3l0,.4a5.08,5.08,0,0,1-.29,1.05,4,4,0,0,1,1.28.54l.09.06a4.38,4.38,0,0,1,1.75,2.51A.21.21,0,0,1,21.32,21Zm-1.92-.31a5.51,5.51,0,0,1-2.28,3.91,2.36,2.36,0,0,1-.56-1.14,4.24,4.24,0,0,0,1.61-2.79,2.13,2.13,0,0,1,.67-.09A2.22,2.22,0,0,1,19.4,20.68Z"/></g></g></svg>