<svg xmlns="http://www.w3.org/2000/svg" viewBox="0 0 50.21 57.53"><defs><style>.cls-1{fill:#fff;}</style></defs><g id="Capa_2" data-name="Capa 2"><g id="Capa_1-2" data-name="Capa 1"><path class="cls-1" d="M27,25a2.05,2.05,0,0,1-.23.85L17.9,17.11l.76-.76-1.57-1.57.52-.52L8.43,5.12l.78-.79L8,3.13,6.7,4.44,4.5,2.25l1-1L4.34,0,0,4.35l1.21,1.2,1-1L4.45,6.7,3.15,8l1.2,1.2.79-.78,9.18,9.13.52-.52,1.57,1.57.79-.79L26,26.57a2,2,0,0,1-.9.19l0,.39a.88.88,0,0,0,.23,0,2,2,0,0,0,1.55-.77A2.52,2.52,0,0,0,27.35,25ZM3.82,3,6,5.13,5.13,6,3,3.82ZM7.75,5.85l8.44,8.41-1.88,1.89L5.87,7.74Zm7.82,10.51.84-.84.84.83-.84.84Z"/><path class="cls-1" d="M40,26.62a1,1,0,0,0-.5-.86L27.33,18.64a1,1,0,0,0-1,0l-2.55,1.49,1.46,1.45,1.59-.92,10.22,6-10.22,6-10.22-6,4.16-2.43-1.46-1.46-5.19,3a1,1,0,0,0-.5.86.69.69,0,0,0,0,.13s0,.05,0,.08v14.1a1,1,0,0,0,.5.87l12.21,7.05h0a.82.82,0,0,0,.24.1.78.78,0,0,0,.26,0h.08l.18,0,.05,0a.64.64,0,0,0,.19-.08h0L39.54,41.8a1,1,0,0,0,.5-.87V26.83a.19.19,0,0,0,0-.08A.69.69,0,0,0,40,26.62ZM25.83,46.26l-10.21-5.9v-12l10.21,6ZM38,40.36,27.83,46.25V34.32l10.21-6Z"/><path class="cls-1" d="M10.87,18.49a21.78,21.78,0,0,0,15.55,37h.14A21.79,21.79,0,0,0,26.43,12h-.14a21.38,21.38,0,0,0-6.84,1.14l-.64-1.9a23.79,23.79,0,1,1,7.76,46.33h-.15A23.78,23.78,0,0,1,9,17.53"/></g></g></svg>