<svg xmlns="http://www.w3.org/2000/svg" viewBox="0 0 55.88 65.67"><defs><style>.cls-1{fill:#fff;}</style></defs><g id="Capa_2" data-name="Capa 2"><g id="Capa_1-2" data-name="Capa 1"><path class="cls-1" d="M41.82,20.44l.62-.62c.41-.41.71-.73.91-1a3.33,3.33,0,0,0,.5-.69,1.54,1.54,0,0,0,.18-.72.87.87,0,0,0-.22-.67.85.85,0,0,0-.58-.2,1.4,1.4,0,0,0-.61.14.82.82,0,0,0-.36.32l-.1.17a.35.35,0,0,0,0,.1s0,0,0,0h0s0,0,0,0l0,0-.06,0L41.71,17a1.61,1.61,0,0,1,.62-.67,1.67,1.67,0,0,1,.89-.24,1.36,1.36,0,0,1,1,.36,1.3,1.3,0,0,1,.37,1,1.74,1.74,0,0,1-.19.8,3.21,3.21,0,0,1-.51.73c-.2.24-.49.53-.85.89l-.51.52h1.93a.21.21,0,0,0,.1-.06h.06v.54H41.82Zm4.41.51a.42.42,0,0,1-.31-.13.41.41,0,0,1-.13-.3.42.42,0,0,1,.13-.31.45.45,0,0,1,.31-.12.41.41,0,0,1,.3.12.42.42,0,0,1,.13.31.41.41,0,0,1-.13.3A.38.38,0,0,1,46.23,21Zm3.3-3.15a1.37,1.37,0,0,1,.73.19,1.39,1.39,0,0,1,.51.56,1.81,1.81,0,0,1,.18.83,1.67,1.67,0,0,1-.19.83,1.4,1.4,0,0,1-.53.55,1.48,1.48,0,0,1-.76.19,1.66,1.66,0,0,1-.8-.19,1.64,1.64,0,0,1-.6-.54l.42-.32h0a1.52,1.52,0,0,0,.41.45,1.11,1.11,0,0,0,.58.14.88.88,0,0,0,.46-.14,1,1,0,0,0,.33-.39,1.4,1.4,0,0,0,.13-.6,1.18,1.18,0,0,0-.28-.82.89.89,0,0,0-.69-.3,1.07,1.07,0,0,0-.48.12,1.14,1.14,0,0,0-.41.32l-.33-.13.16-2.4h2.39v.47h-2L48.76,18A1.74,1.74,0,0,1,49.53,17.8Zm-1,2.1s0,0,0,0Zm.08,0s0,0-.06,0l0,0Z"/><path class="cls-1" d="M42.45,10c.43-1.44.91-2.84,1.43-4.22h-2v-.5h2.67v.3A43.65,43.65,0,0,0,43,10Zm3.78.09a.46.46,0,0,1-.31-.13.41.41,0,0,1-.13-.3.42.42,0,0,1,.13-.31.46.46,0,0,1,.31-.13.44.44,0,0,1,.43.44.41.41,0,0,1-.13.3A.42.42,0,0,1,46.23,10.07Zm3.3-3.15a1.37,1.37,0,0,1,.73.19,1.32,1.32,0,0,1,.51.56A1.78,1.78,0,0,1,51,8.5a1.67,1.67,0,0,1-.19.83,1.4,1.4,0,0,1-.53.55,1.59,1.59,0,0,1-.76.19,1.78,1.78,0,0,1-.8-.19,1.64,1.64,0,0,1-.6-.54L48.49,9h0a1.66,1.66,0,0,0,.41.45,1.11,1.11,0,0,0,.58.14A.88.88,0,0,0,50,9.47a1,1,0,0,0,.33-.4,1.38,1.38,0,0,0,.13-.59,1.18,1.18,0,0,0-.28-.82.89.89,0,0,0-.69-.3,1.07,1.07,0,0,0-.48.12,1.14,1.14,0,0,0-.41.32l-.33-.13.16-2.41h2.39v.48h-2L48.76,7.1A1.74,1.74,0,0,1,49.53,6.92ZM48.5,9s0,0,0,0Zm.08,0s0,0-.06,0l0,0Z"/><path class="cls-1" d="M43.45,28.66a1.34,1.34,0,0,1,.72.19,1.26,1.26,0,0,1,.51.56,1.67,1.67,0,0,1,.19.83,1.57,1.57,0,0,1-.2.83,1.28,1.28,0,0,1-.53.55,1.55,1.55,0,0,1-.75.19,1.86,1.86,0,0,1-.81-.19,1.61,1.61,0,0,1-.59-.54l.42-.32h0a1.68,1.68,0,0,0,.42.45,1.11,1.11,0,0,0,.58.14.82.82,0,0,0,.45-.14,1,1,0,0,0,.33-.39,1.32,1.32,0,0,0,.13-.6,1.13,1.13,0,0,0-.28-.82.89.89,0,0,0-.69-.3,1,1,0,0,0-.47.12,1.07,1.07,0,0,0-.41.32l-.34-.13L42.3,27h2.4v.48h-2l-.08,1.36A1.78,1.78,0,0,1,43.45,28.66Zm-1,2.09s0,0,0,0Zm.08,0s0,0-.07,0l0,0Zm4,1.06a.46.46,0,0,1-.31-.13.41.41,0,0,1-.13-.3.42.42,0,0,1,.13-.31.46.46,0,0,1,.31-.13.44.44,0,0,1,.43.44.41.41,0,0,1-.13.3A.42.42,0,0,1,46.46,31.81Zm3.3-3.15a1.37,1.37,0,0,1,.73.19,1.39,1.39,0,0,1,.51.56,1.78,1.78,0,0,1,.18.83,1.67,1.67,0,0,1-.19.83,1.4,1.4,0,0,1-.53.55,1.61,1.61,0,0,1-.76.19,1.78,1.78,0,0,1-.8-.19,1.56,1.56,0,0,1-.6-.54l.42-.32h0a0,0,0,0,1,0,0,1.66,1.66,0,0,0,.41.45,1.11,1.11,0,0,0,.58.14.82.82,0,0,0,.45-.14,1,1,0,0,0,.34-.39,1.47,1.47,0,0,0,.13-.6,1.18,1.18,0,0,0-.28-.82.92.92,0,0,0-.69-.3,1.07,1.07,0,0,0-.48.12,1.14,1.14,0,0,0-.41.32l-.33-.13L48.62,27H51v.48H49.06L49,28.84A1.74,1.74,0,0,1,49.76,28.66Zm-1,2.09s0,0,0,0Zm.08,0s0,0-.06,0l0,0Z"/><path class="cls-1" d="M35,21l-1.51-1.52a.31.31,0,0,1,0-.45A.33.33,0,0,1,34,19l1,1,2.46-3.71a.32.32,0,0,1,.45-.09.31.31,0,0,1,.09.44Z"/><path class="cls-1" d="M36.21,7.84l1.65-1.65a.37.37,0,0,0,0-.53.37.37,0,0,0-.52,0L35.69,7.31,34,5.66a.37.37,0,0,0-.52,0,.39.39,0,0,0,0,.53l1.65,1.65L33.52,9.49a.37.37,0,0,0,0,.52.37.37,0,0,0,.26.1A.35.35,0,0,0,34,10l1.65-1.65L37.34,10a.37.37,0,0,0,.26.1.36.36,0,0,0,.26-.62Z"/><path class="cls-1" d="M36.21,29.41l1.65-1.65a.37.37,0,0,0,0-.53.37.37,0,0,0-.52,0l-1.65,1.65L34,27.23a.37.37,0,0,0-.52,0,.39.39,0,0,0,0,.53l1.65,1.65-1.65,1.65a.37.37,0,0,0,0,.52.37.37,0,0,0,.26.1.35.35,0,0,0,.26-.1l1.65-1.65,1.65,1.65a.37.37,0,0,0,.26.1.36.36,0,0,0,.26-.62Z"/><path class="cls-1" d="M28.79,0V37.75H37.6v7.86c0,.25-.07,5.92-5.91,5.92H23.1v-5s0-.06,0-.09a.78.78,0,0,0,0-.14,1.15,1.15,0,0,0-.58-1L12.11,39.41a1.12,1.12,0,0,0-1.12,0L.58,45.32a1.15,1.15,0,0,0-.58,1,.78.78,0,0,0,0,.14s0,.06,0,.09v12a1.15,1.15,0,0,0,.57,1l10.41,6h0l.11,0a1.15,1.15,0,0,0,.17.06.92.92,0,0,0,.29,0h0a1.07,1.07,0,0,0,.25,0h0l.1,0,.18-.07h0l10.41-6a1.15,1.15,0,0,0,.57-1V53.25h8.59c6,0,7.64-5,7.64-7.64V37.75H55.88V0ZM10.41,62.55,2.29,57.88v-9.6l8.12,4.61Zm1.14-11.63-8.09-4.6,8.09-4.6,8.09,4.6Zm9.27,7-8.13,4.67V52.89l8.13-4.61ZM54.15,36H30.51V1.73H54.15Z"/></g></g></svg>